<svg width="492" height="468" viewBox="0 0 492 468" fill="none" xmlns="http://www.w3.org/2000/svg">
<g opacity="0.202325">
<mask id="mask0_1_744" style="mask-type:alpha" maskUnits="userSpaceOnUse" x="14" y="0" width="478" height="468">
<rect x="14.668" y="0.0168457" width="477.332" height="467.966" fill="#FF5252"/>
</mask>
<g mask="url(#mask0_1_744)">
<path d="M65.0685 76.9887C63.5466 78.553 61.0434 78.5876 59.4789 77.0658C57.9146 75.544 57.88 73.0407 59.4018 71.4762L85.1301 45.1356C85.195 45.0694 85.2613 45.0061 85.3292 44.9449C85.384 44.8812 85.4416 44.8171 85.5016 44.7555L89.0946 41.0772C90.6164 39.5127 93.1199 39.4781 94.6841 40.9999C96.2484 42.5217 96.283 45.0243 94.7612 46.5897L91.1681 50.2678C91.1037 50.3347 91.0368 50.398 90.9689 50.4591C90.9137 50.523 90.8566 50.5865 90.7967 50.6481L65.0685 76.9887ZM265.737 466.787C264.216 468.351 261.713 468.386 260.147 466.864C258.583 465.342 258.548 462.839 260.071 461.274L300.648 419.732C302.17 418.168 304.673 418.133 306.238 419.655C307.802 421.177 307.837 423.68 306.315 425.244L265.737 466.787ZM381.183 348.596C379.663 350.16 377.159 350.195 375.595 348.673C374.03 347.151 373.995 344.648 375.518 343.083L419.409 298.148C420.931 296.584 423.434 296.549 424.999 298.071C426.563 299.593 426.598 302.096 425.076 303.661L381.183 348.596ZM258.32 451.486C256.799 453.05 254.296 453.085 252.731 451.563C251.166 450.041 251.132 447.538 252.654 445.973L316.219 380.899C317.74 379.333 320.243 379.299 321.808 380.821C323.373 382.343 323.407 384.846 321.885 386.41L258.32 451.486ZM349.411 358.23C347.889 359.794 345.386 359.829 343.822 358.307C342.257 356.786 342.223 354.282 343.745 352.718L430.135 264.274C431.657 262.709 434.161 262.675 435.725 264.197C437.289 265.719 437.324 268.222 435.802 269.786L349.411 358.23ZM245.769 441.442C244.247 443.006 241.744 443.04 240.18 441.52C238.615 439.997 238.581 437.495 240.102 435.93L431.452 240.033C432.974 238.468 435.477 238.433 437.042 239.955C438.606 241.477 438.641 243.979 437.119 245.544L245.769 441.442ZM232.203 432.436C230.681 434.001 228.178 434.035 226.614 432.513C225.049 430.992 225.015 428.488 226.536 426.924L485.214 162.099C486.737 160.534 489.239 160.5 490.803 162.021C492.368 163.543 492.402 166.046 490.882 167.611L232.203 432.436ZM261.827 379.214C260.305 380.779 257.803 380.814 256.238 379.291C254.673 377.769 254.639 375.267 256.161 373.702L482.753 141.725C484.274 140.161 486.777 140.126 488.343 141.648C489.907 143.17 489.942 145.673 488.419 147.237L261.827 379.214ZM256.958 361.306C255.436 362.87 252.933 362.905 251.368 361.383C249.804 359.861 249.77 357.358 251.291 355.794L472.728 129.094C474.25 127.529 476.754 127.495 478.318 129.016C479.883 130.538 479.917 133.041 478.395 134.606L256.958 361.306ZM243.387 352.305C241.865 353.87 239.362 353.904 237.798 352.383C236.233 350.861 236.198 348.358 237.72 346.793L455.757 123.575C457.278 122.011 459.781 121.977 461.346 123.498C462.911 125.02 462.944 127.523 461.423 129.088L243.387 352.305ZM235.74 337.241C234.218 338.805 231.715 338.84 230.15 337.319C228.586 335.796 228.551 333.294 230.073 331.729L444.272 112.44C445.792 110.876 448.296 110.841 449.861 112.363C451.426 113.885 451.46 116.387 449.937 117.953L235.74 337.241ZM215.671 334.893C214.149 336.457 211.646 336.492 210.081 334.97C208.517 333.448 208.482 330.946 210.004 329.38L431.127 103.003C432.649 101.438 435.152 101.403 436.717 102.925C438.281 104.447 438.316 106.95 436.794 108.515L215.671 334.893ZM213.807 313.907C212.286 315.471 209.783 315.506 208.218 313.984C206.653 312.462 206.619 309.959 208.141 308.395L412.426 99.2543C413.948 97.6901 416.451 97.6555 418.015 99.1773C419.58 100.699 419.614 103.202 418.092 104.767L213.807 313.907ZM218.259 286.455C216.738 288.02 214.235 288.055 212.67 286.532C211.105 285.011 211.072 282.508 212.593 280.942L393.266 95.9763C394.789 94.412 397.291 94.3774 398.855 95.8992C400.42 97.421 400.454 99.9236 398.932 101.488L218.259 286.455ZM208.201 273.86C206.679 275.424 204.176 275.459 202.612 273.936C201.047 272.415 201.012 269.912 202.534 268.348L372.709 94.1279L372.787 94.0502L372.857 93.9769L374.327 92.4727C375.848 90.908 378.351 90.8736 379.916 92.3954C381.481 93.917 381.515 96.4199 379.992 97.9844L378.522 99.4894L378.445 99.5673L378.375 99.6402L208.201 273.86ZM193.096 266.43C191.574 267.994 189.071 268.028 187.507 266.508C185.942 264.985 185.908 262.483 187.43 260.918L365.251 78.8698C366.772 77.3053 369.275 77.2709 370.84 78.7927C372.405 80.3143 372.44 82.8171 370.917 84.382L193.096 266.43ZM183.726 253.128C182.205 254.693 179.702 254.727 178.137 253.204C176.572 251.684 176.538 249.18 178.06 247.616L347.706 73.937C349.228 72.3723 351.731 72.3379 353.296 73.8597C354.86 75.3815 354.895 77.8848 353.373 79.4492L183.726 253.128ZM179.664 234.392C178.143 235.957 175.64 235.991 174.075 234.471C172.51 232.947 172.477 230.445 173.998 228.881L319.943 79.4665C320.098 79.3085 320.261 79.1662 320.431 79.0403C320.551 78.8698 320.686 78.7067 320.836 78.5523L329.221 69.9695C330.742 68.4043 333.245 68.3704 334.81 69.8922C336.375 71.414 336.409 73.9162 334.887 75.4811L326.503 84.0648C326.349 84.2219 326.186 84.3649 326.014 84.4916C325.895 84.6613 325.76 84.8243 325.61 84.9789L179.664 234.392ZM162.381 229.193C160.86 230.758 158.356 230.792 156.792 229.271C155.228 227.749 155.193 225.245 156.715 223.681L313.086 63.5932C314.608 62.0287 317.111 61.9939 318.676 63.5157C320.24 65.0375 320.275 67.5408 318.752 69.1055L162.381 229.193ZM146.578 222.478C145.056 224.043 142.553 224.077 140.989 222.556C139.424 221.034 139.389 218.531 140.911 216.967L305.893 48.0629C307.417 46.4986 309.918 46.464 311.483 47.9858C313.047 49.5076 313.082 52.0102 311.56 53.5752L146.578 222.478ZM130.815 215.722C129.294 217.286 126.79 217.321 125.226 215.799C123.662 214.277 123.627 211.774 125.149 210.21L295.876 35.4265C297.396 33.8616 299.9 33.827 301.464 35.3494C303.029 36.8713 303.063 39.3738 301.541 40.9384L130.815 215.722ZM124.11 199.693C122.588 201.258 120.085 201.292 118.52 199.77C116.956 198.249 116.921 195.746 118.443 194.181L291.424 17.0878C292.947 15.5235 295.449 15.4889 297.014 17.0107C298.578 18.5326 298.613 21.0358 297.092 22.6003L124.11 199.693ZM101.567 199.877C100.046 201.442 97.5422 201.476 95.9779 199.954C94.4132 198.433 94.3788 195.93 95.9006 194.365L250.643 35.945C252.165 34.3807 254.668 34.3459 256.233 35.8677C257.797 37.3896 257.832 39.8928 256.31 41.4575L101.567 199.877ZM70.8332 208.449C69.3114 210.013 66.8081 210.048 65.2434 208.526C63.6791 207.004 63.6445 204.501 65.1663 202.937L224.644 39.6694C225.247 39.0485 226.005 38.6685 226.798 38.5311C226.917 37.741 227.274 36.9785 227.874 36.3621L231.648 32.4975C233.17 30.9332 235.673 30.8986 237.237 32.4205C238.802 33.9423 238.837 36.4449 237.315 38.01L233.541 41.8745C232.936 42.4952 232.178 42.8753 231.385 43.0127C231.268 43.8028 230.909 44.5648 230.31 45.1813L70.8332 208.449ZM62.5077 194.078C60.9858 195.642 58.4826 195.677 56.9179 194.155C55.3536 192.634 55.319 190.131 56.8408 188.566L194.692 47.439C196.213 45.8745 198.715 45.8401 200.281 47.362C201.846 48.8836 201.88 51.3864 200.358 52.9515L62.5077 194.078ZM41.5596 192.63C40.0377 194.195 37.5349 194.229 35.97 192.707C34.4057 191.185 34.3711 188.683 35.8929 187.118L184.319 35.1645C185.841 33.5996 188.344 33.5656 189.909 35.0874C191.473 36.6092 191.507 39.1118 189.986 40.6763L41.5596 192.63ZM29.6751 181.904C28.1532 183.468 25.6504 183.503 24.0859 181.981C22.5214 180.459 22.487 177.956 24.0089 176.391L185.514 11.0475C187.036 9.48296 189.539 9.44856 191.103 10.9704C192.668 12.492 192.702 14.9948 191.18 16.5591L29.6751 181.904ZM21.4536 167.426C19.932 168.992 17.4285 169.026 15.8642 167.504C14.2997 165.982 14.2651 163.479 15.787 161.915L59.0084 117.666C59.5815 117.077 60.2947 116.704 61.0444 116.55C61.1793 115.803 61.5307 115.086 62.1004 114.5L130.848 44.1185L137.288 37.5255L163.236 10.9617C164.757 9.39697 167.26 9.36257 168.825 10.8844C170.39 12.4062 170.424 14.9094 168.902 16.4739L142.955 43.0373L136.515 49.6308L67.767 120.012C67.194 120.602 66.4809 120.974 65.7307 121.128C65.5961 121.875 65.2447 122.593 64.6752 123.178L21.4536 167.426ZM177.661 7.50611C176.139 9.07103 173.637 9.105 172.072 7.58318C170.508 6.06137 170.473 3.55876 171.995 1.99426L172.757 1.21329C174.279 -0.351637 176.783 -0.386248 178.347 1.13621C179.912 2.65739 179.946 5.16063 178.424 6.72492L177.661 7.50611ZM71.8388 92.9503C70.317 94.5152 67.8138 94.5496 66.2493 93.028C64.685 91.5062 64.6504 89.0027 66.172 87.4384L100.447 52.3485C101.969 50.7838 104.472 50.7494 106.037 52.2712C107.601 53.7928 107.636 56.2963 106.114 57.8608L71.8388 92.9503ZM134.566 28.7324C133.044 30.2973 130.541 30.3313 128.977 28.8094C127.412 27.2876 127.378 24.785 128.9 23.2205L134.479 17.5074C136.001 15.9429 138.504 15.9081 140.069 17.4299C141.633 18.9517 141.668 21.4547 140.146 23.0197L134.566 28.7324Z" fill="#FF5252"/>
</g>
</g>
<mask id="mask1_1_744" style="mask-type:alpha" maskUnits="userSpaceOnUse" x="0" y="0" width="478" height="468">
<rect x="0.667969" y="0.0168457" width="477.332" height="467.966" fill="#FF5252"/>
</mask>
<g mask="url(#mask1_1_744)">
<path d="M51.0685 76.9887C49.5466 78.553 47.0434 78.5876 45.4789 77.0658C43.9146 75.544 43.88 73.0407 45.4018 71.4762L71.1301 45.1356C71.195 45.0694 71.2613 45.0061 71.3292 44.9449C71.384 44.8812 71.4416 44.8171 71.5016 44.7555L75.0946 41.0772C76.6164 39.5127 79.1199 39.4781 80.6841 40.9999C82.2484 42.5217 82.283 45.0243 80.7612 46.5897L77.1681 50.2678C77.1037 50.3347 77.0368 50.398 76.9689 50.4591C76.9137 50.523 76.8566 50.5865 76.7967 50.6481L51.0685 76.9887ZM251.737 466.787C250.216 468.351 247.713 468.386 246.147 466.864C244.583 465.342 244.548 462.839 246.071 461.274L286.648 419.732C288.17 418.168 290.673 418.133 292.238 419.655C293.802 421.177 293.837 423.68 292.315 425.244L251.737 466.787ZM367.183 348.596C365.663 350.16 363.159 350.195 361.595 348.673C360.03 347.151 359.995 344.648 361.518 343.083L405.409 298.148C406.931 296.584 409.434 296.549 410.999 298.071C412.563 299.593 412.598 302.096 411.076 303.661L367.183 348.596ZM244.32 451.486C242.799 453.05 240.296 453.085 238.731 451.563C237.166 450.041 237.132 447.538 238.654 445.973L302.219 380.899C303.74 379.333 306.243 379.299 307.808 380.821C309.373 382.343 309.407 384.846 307.885 386.41L244.32 451.486ZM335.411 358.23C333.889 359.794 331.386 359.829 329.822 358.307C328.257 356.786 328.223 354.282 329.745 352.718L416.135 264.274C417.657 262.709 420.161 262.675 421.725 264.197C423.289 265.719 423.324 268.222 421.802 269.786L335.411 358.23ZM231.769 441.442C230.247 443.006 227.744 443.04 226.18 441.52C224.615 439.997 224.581 437.495 226.102 435.93L417.452 240.033C418.974 238.468 421.477 238.433 423.042 239.955C424.606 241.477 424.641 243.979 423.119 245.544L231.769 441.442ZM218.203 432.436C216.681 434.001 214.178 434.035 212.614 432.513C211.049 430.992 211.015 428.488 212.536 426.924L471.214 162.099C472.737 160.534 475.239 160.5 476.803 162.021C478.368 163.543 478.402 166.046 476.882 167.611L218.203 432.436ZM247.827 379.214C246.305 380.779 243.803 380.814 242.238 379.291C240.673 377.769 240.639 375.267 242.161 373.702L468.753 141.725C470.274 140.161 472.777 140.126 474.343 141.648C475.907 143.17 475.942 145.673 474.419 147.237L247.827 379.214ZM242.958 361.306C241.436 362.87 238.933 362.905 237.368 361.383C235.804 359.861 235.77 357.358 237.291 355.794L458.728 129.094C460.25 127.529 462.754 127.495 464.318 129.016C465.883 130.538 465.917 133.041 464.395 134.606L242.958 361.306ZM229.387 352.305C227.865 353.87 225.362 353.904 223.798 352.383C222.233 350.861 222.198 348.358 223.72 346.793L441.757 123.575C443.278 122.011 445.781 121.977 447.346 123.498C448.911 125.02 448.944 127.523 447.423 129.088L229.387 352.305ZM221.74 337.241C220.218 338.805 217.715 338.84 216.15 337.319C214.586 335.796 214.551 333.294 216.073 331.729L430.272 112.44C431.792 110.876 434.296 110.841 435.861 112.363C437.426 113.885 437.46 116.387 435.937 117.953L221.74 337.241ZM201.671 334.893C200.149 336.457 197.646 336.492 196.081 334.97C194.517 333.448 194.482 330.946 196.004 329.38L417.127 103.003C418.649 101.438 421.152 101.403 422.717 102.925C424.281 104.447 424.316 106.95 422.794 108.515L201.671 334.893ZM199.807 313.907C198.286 315.471 195.783 315.506 194.218 313.984C192.653 312.462 192.619 309.959 194.141 308.395L398.426 99.2543C399.948 97.6901 402.451 97.6555 404.015 99.1773C405.58 100.699 405.614 103.202 404.092 104.767L199.807 313.907ZM204.259 286.455C202.738 288.02 200.235 288.055 198.67 286.532C197.105 285.011 197.072 282.508 198.593 280.942L379.266 95.9763C380.789 94.412 383.291 94.3774 384.855 95.8992C386.42 97.421 386.454 99.9236 384.932 101.488L204.259 286.455ZM194.201 273.86C192.679 275.424 190.176 275.459 188.612 273.936C187.047 272.415 187.012 269.912 188.534 268.348L358.709 94.1279L358.787 94.0502L358.857 93.9769L360.327 92.4727C361.848 90.908 364.351 90.8736 365.916 92.3954C367.481 93.917 367.515 96.4199 365.992 97.9844L364.522 99.4894L364.445 99.5673L364.375 99.6402L194.201 273.86ZM179.096 266.43C177.574 267.994 175.071 268.028 173.507 266.508C171.942 264.985 171.908 262.483 173.43 260.918L351.251 78.8698C352.772 77.3053 355.275 77.2709 356.84 78.7927C358.405 80.3143 358.44 82.8171 356.917 84.382L179.096 266.43ZM169.726 253.128C168.205 254.693 165.702 254.727 164.137 253.204C162.572 251.684 162.538 249.18 164.06 247.616L333.706 73.937C335.228 72.3723 337.731 72.3379 339.296 73.8597C340.86 75.3815 340.895 77.8848 339.373 79.4492L169.726 253.128ZM165.664 234.392C164.143 235.957 161.64 235.991 160.075 234.471C158.51 232.947 158.477 230.445 159.998 228.881L305.943 79.4665C306.098 79.3085 306.261 79.1662 306.431 79.0403C306.551 78.8698 306.686 78.7067 306.836 78.5523L315.221 69.9695C316.742 68.4043 319.245 68.3704 320.81 69.8922C322.375 71.414 322.409 73.9162 320.887 75.4811L312.503 84.0648C312.349 84.2219 312.186 84.3649 312.014 84.4916C311.895 84.6613 311.76 84.8243 311.61 84.9789L165.664 234.392ZM148.381 229.193C146.86 230.758 144.356 230.792 142.792 229.271C141.228 227.749 141.193 225.245 142.715 223.681L299.086 63.5932C300.608 62.0287 303.111 61.9939 304.676 63.5157C306.24 65.0375 306.275 67.5408 304.752 69.1055L148.381 229.193ZM132.578 222.478C131.056 224.043 128.553 224.077 126.989 222.556C125.424 221.034 125.389 218.531 126.911 216.967L291.893 48.0629C293.417 46.4986 295.918 46.464 297.483 47.9858C299.047 49.5076 299.082 52.0102 297.56 53.5752L132.578 222.478ZM116.815 215.722C115.294 217.286 112.79 217.321 111.226 215.799C109.662 214.277 109.627 211.774 111.149 210.21L281.876 35.4265C283.396 33.8616 285.9 33.827 287.464 35.3494C289.029 36.8713 289.063 39.3738 287.541 40.9384L116.815 215.722ZM110.11 199.693C108.588 201.258 106.085 201.292 104.52 199.77C102.956 198.249 102.921 195.746 104.443 194.181L277.424 17.0878C278.947 15.5235 281.449 15.4889 283.014 17.0107C284.578 18.5326 284.613 21.0358 283.092 22.6003L110.11 199.693ZM87.5673 199.877C86.0457 201.442 83.5422 201.476 81.9779 199.954C80.4132 198.433 80.3788 195.93 81.9006 194.365L236.643 35.945C238.165 34.3807 240.668 34.3459 242.233 35.8677C243.797 37.3896 243.832 39.8928 242.31 41.4575L87.5673 199.877ZM56.8332 208.449C55.3114 210.013 52.8081 210.048 51.2434 208.526C49.6791 207.004 49.6445 204.501 51.1663 202.937L210.644 39.6694C211.247 39.0485 212.005 38.6685 212.798 38.5311C212.917 37.741 213.274 36.9785 213.874 36.3621L217.648 32.4975C219.17 30.9332 221.673 30.8986 223.237 32.4205C224.802 33.9423 224.837 36.4449 223.315 38.01L219.541 41.8745C218.936 42.4952 218.178 42.8753 217.385 43.0127C217.268 43.8028 216.909 44.5648 216.31 45.1813L56.8332 208.449ZM48.5077 194.078C46.9858 195.642 44.4826 195.677 42.9179 194.155C41.3536 192.634 41.319 190.131 42.8408 188.566L180.692 47.439C182.213 45.8745 184.715 45.8401 186.281 47.362C187.846 48.8836 187.88 51.3864 186.358 52.9515L48.5077 194.078ZM27.5596 192.63C26.0377 194.195 23.5349 194.229 21.97 192.707C20.4057 191.185 20.3711 188.683 21.8929 187.118L170.319 35.1645C171.841 33.5996 174.344 33.5656 175.909 35.0874C177.473 36.6092 177.507 39.1118 175.986 40.6763L27.5596 192.63ZM15.6751 181.904C14.1532 183.468 11.6504 183.503 10.0859 181.981C8.52143 180.459 8.48703 177.956 10.0089 176.391L171.514 11.0475C173.036 9.48296 175.539 9.44856 177.103 10.9704C178.668 12.492 178.702 14.9948 177.18 16.5591L15.6751 181.904ZM7.45359 167.426C5.93198 168.992 3.42853 169.026 1.86424 167.504C0.299743 165.982 0.265132 163.479 1.78695 161.915L45.0084 117.666C45.5815 117.077 46.2947 116.704 47.0444 116.55C47.1793 115.803 47.5307 115.086 48.1004 114.5L116.848 44.1185L123.288 37.5255L149.236 10.9617C150.757 9.39697 153.26 9.36257 154.825 10.8844C156.39 12.4062 156.424 14.9094 154.902 16.4739L128.955 43.0373L122.515 49.6308L53.767 120.012C53.194 120.602 52.4809 120.974 51.7307 121.128C51.5961 121.875 51.2447 122.593 50.6752 123.178L7.45359 167.426ZM163.661 7.50611C162.139 9.07103 159.637 9.105 158.072 7.58318C156.508 6.06137 156.473 3.55876 157.995 1.99426L158.757 1.21329C160.279 -0.351637 162.783 -0.386248 164.347 1.13621C165.912 2.65739 165.946 5.16063 164.424 6.72492L163.661 7.50611ZM57.8388 92.9503C56.317 94.5152 53.8138 94.5496 52.2493 93.028C50.685 91.5062 50.6504 89.0027 52.172 87.4384L86.4474 52.3485C87.9692 50.7838 90.4723 50.7494 92.0372 52.2712C93.6015 53.7928 93.6361 56.2963 92.1143 57.8608L57.8388 92.9503ZM120.566 28.7324C119.044 30.2973 116.541 30.3313 114.977 28.8094C113.412 27.2876 113.378 24.785 114.9 23.2205L120.479 17.5074C122.001 15.9429 124.504 15.9081 126.069 17.4299C127.633 18.9517 127.668 21.4547 126.146 23.0197L120.566 28.7324Z" fill="#FF5252"/>
</g>
<mask id="mask2_1_744" style="mask-type:alpha" maskUnits="userSpaceOnUse" x="15" y="110" width="39" height="59">
<rect x="15" y="110.611" width="38.8945" height="57.8676" fill="white"/>
</mask>
<g mask="url(#mask2_1_744)">
<path d="M34.4473 110.611C23.7068 110.611 15 119.318 15 130.058C15 140.799 34.4473 168.478 34.4473 168.478C34.4473 168.478 53.8945 140.799 53.8945 130.058C53.8945 119.318 45.1876 110.611 34.4473 110.611ZM34.4473 142.688C26.6861 142.688 20.3946 136.396 20.3946 128.635C20.3946 120.874 26.6861 114.582 34.4473 114.582C42.2082 114.582 48.4999 120.874 48.4999 128.635C48.4999 136.396 42.2082 142.688 34.4473 142.688Z" fill="white"/>
</g>
<circle cx="34.4408" cy="129.256" r="15.348" fill="#BA0303"/>
<path d="M42.5494 122.063L34.4125 127.734L26.3319 122.063H30.8405L34.4136 124.764L38.0409 122.063H42.5494Z" fill="white"/>
<path d="M27.0916 136.448H24.5153V124.274L24.6438 124.327L27.0916 126.138V136.448Z" fill="white"/>
<path d="M41.8228 125.973L44.317 124.142C44.4179 124.134 44.333 124.178 44.333 124.192V136.448H41.8228V125.973Z" fill="white"/>
<path d="M38.5198 136.448H35.9766C35.9689 136.19 35.9865 135.93 35.9779 135.671C35.9304 134.238 35.9366 132.787 35.9091 131.352C35.9035 131.058 35.91 130.761 35.9173 130.467C36.7545 129.737 37.6654 129.08 38.5198 128.365V136.448Z" fill="white"/>
<path d="M32.9709 136.448H30.3945V128.596C30.455 128.588 30.4903 128.638 30.5363 128.669C30.925 128.925 31.3463 129.247 31.7261 129.526C32.144 129.833 32.5576 130.147 32.9709 130.46V136.448Z" fill="white"/>
<mask id="mask3_1_744" style="mask-type:alpha" maskUnits="userSpaceOnUse" x="112" y="0" width="39" height="58">
<rect x="112" y="0.0168457" width="38.8945" height="57.8676" fill="white"/>
</mask>
<g mask="url(#mask3_1_744)">
<path d="M131.447 0.0168457C120.707 0.0168457 112 8.7236 112 19.4643C112 30.2046 131.447 57.8845 131.447 57.8845C131.447 57.8845 150.895 30.2046 150.895 19.4643C150.895 8.7236 142.188 0.0168457 131.447 0.0168457ZM131.447 32.0939C123.686 32.0939 117.395 25.8023 117.395 18.0412C117.395 10.2803 123.686 3.9885 131.447 3.9885C139.208 3.9885 145.5 10.2803 145.5 18.0412C145.5 25.8023 139.208 32.0939 131.447 32.0939Z" fill="white"/>
</g>
<circle cx="131.441" cy="18.6617" r="15.348" fill="#BA0303"/>
<path d="M139.549 11.4695L131.413 17.1405L123.332 11.4695H127.84L131.414 14.1695L135.041 11.4695H139.549Z" fill="white"/>
<path d="M124.092 25.8542H121.515V13.6799L121.644 13.733L124.092 15.544V25.8542Z" fill="white"/>
<path d="M138.823 15.3792L141.317 13.5485C141.418 13.5398 141.333 13.5843 141.333 13.5976V25.8544H138.823V15.3792Z" fill="white"/>
<path d="M135.52 25.8542H132.977C132.969 25.5963 132.986 25.3356 132.978 25.0775C132.93 23.6438 132.937 22.1933 132.909 20.7582C132.903 20.4637 132.91 20.1672 132.917 19.8728C133.755 19.1432 134.665 18.4856 135.52 17.771V25.8542Z" fill="white"/>
<path d="M129.971 25.8543H127.395V18.0021C127.455 17.994 127.49 18.0445 127.536 18.0749C127.925 18.3312 128.346 18.6532 128.726 18.932C129.144 19.2388 129.558 19.5532 129.971 19.8661V25.8543Z" fill="white"/>
<mask id="mask4_1_744" style="mask-type:alpha" maskUnits="userSpaceOnUse" x="123" y="131" width="39" height="58">
<rect x="123" y="131.017" width="38.8945" height="57.8676" fill="white"/>
</mask>
<g mask="url(#mask4_1_744)">
<path d="M142.447 131.017C131.707 131.017 123 139.724 123 150.464C123 161.205 142.447 188.884 142.447 188.884C142.447 188.884 161.895 161.205 161.895 150.464C161.895 139.724 153.188 131.017 142.447 131.017ZM142.447 163.094C134.686 163.094 128.395 156.802 128.395 149.041C128.395 141.28 134.686 134.989 142.447 134.989C150.208 134.989 156.5 141.28 156.5 149.041C156.5 156.802 150.208 163.094 142.447 163.094Z" fill="white"/>
</g>
<circle cx="142.441" cy="149.662" r="15.348" fill="#BA0303"/>
<path d="M150.549 142.469L142.413 148.14L134.332 142.469H138.84L142.414 145.17L146.041 142.469H150.549Z" fill="white"/>
<path d="M135.092 156.854H132.515V144.68L132.644 144.733L135.092 146.544V156.854Z" fill="white"/>
<path d="M149.823 146.379L152.317 144.548C152.418 144.54 152.333 144.584 152.333 144.598V156.854H149.823V146.379Z" fill="white"/>
<path d="M146.52 156.854H143.977C143.969 156.596 143.986 156.336 143.978 156.077C143.93 154.644 143.937 153.193 143.909 151.758C143.903 151.464 143.91 151.167 143.917 150.873C144.755 150.143 145.665 149.486 146.52 148.771V156.854Z" fill="white"/>
<path d="M140.971 156.854H138.395V149.002C138.455 148.994 138.49 149.044 138.536 149.075C138.925 149.331 139.346 149.653 139.726 149.932C140.144 150.239 140.558 150.553 140.971 150.866V156.854Z" fill="white"/>
<mask id="mask5_1_744" style="mask-type:alpha" maskUnits="userSpaceOnUse" x="222" y="28" width="39" height="59">
<rect x="222" y="28.9507" width="38.8945" height="57.8676" fill="white"/>
</mask>
<g mask="url(#mask5_1_744)">
<path d="M241.447 28.9507C230.707 28.9507 222 37.6574 222 48.3981C222 59.1384 241.447 86.8183 241.447 86.8183C241.447 86.8183 260.895 59.1384 260.895 48.3981C260.895 37.6574 252.188 28.9507 241.447 28.9507ZM241.447 61.0277C233.686 61.0277 227.395 54.7361 227.395 46.975C227.395 39.2141 233.686 32.9223 241.447 32.9223C249.208 32.9223 255.5 39.2141 255.5 46.975C255.5 54.7361 249.208 61.0277 241.447 61.0277Z" fill="white"/>
</g>
<circle cx="241.441" cy="47.5956" r="15.348" fill="#BA0303"/>
<path d="M249.549 40.4033L241.413 46.0743L233.332 40.4033H237.84L241.414 43.1034L245.041 40.4033H249.549Z" fill="white"/>
<path d="M234.092 54.7881H231.515V42.6138L231.644 42.6668L234.092 44.4779V54.7881Z" fill="white"/>
<path d="M248.823 44.3131L251.317 42.4823C251.418 42.4736 251.333 42.5181 251.333 42.5315V54.7883H248.823V44.3131Z" fill="white"/>
<path d="M245.52 54.788H242.977C242.969 54.5301 242.986 54.2695 242.978 54.0113C242.93 52.5776 242.937 51.1271 242.909 49.692C242.903 49.3975 242.91 49.101 242.917 48.8066C243.755 48.077 244.665 47.4194 245.52 46.7048V54.788Z" fill="white"/>
<path d="M239.971 54.7882H237.395V46.9359C237.455 46.9279 237.49 46.9783 237.536 47.0087C237.925 47.265 238.346 47.5871 238.726 47.8658C239.144 48.1726 239.558 48.487 239.971 48.8V54.7882Z" fill="white"/>
<mask id="mask6_1_744" style="mask-type:alpha" maskUnits="userSpaceOnUse" x="196" y="226" width="39" height="58">
<rect x="196" y="226.132" width="38.8945" height="57.8676" fill="white"/>
</mask>
<g mask="url(#mask6_1_744)">
<path d="M215.447 226.132C204.707 226.132 196 234.839 196 245.58C196 256.32 215.447 284 215.447 284C215.447 284 234.895 256.32 234.895 245.58C234.895 234.839 226.188 226.132 215.447 226.132ZM215.447 258.209C207.686 258.209 201.395 251.918 201.395 244.157C201.395 236.396 207.686 230.104 215.447 230.104C223.208 230.104 229.5 236.396 229.5 244.157C229.5 251.918 223.208 258.209 215.447 258.209Z" fill="white"/>
</g>
<circle cx="215.441" cy="244.777" r="15.348" fill="#BA0303"/>
<path d="M223.549 237.585L215.413 243.256L207.332 237.585H211.84L215.414 240.285L219.041 237.585H223.549Z" fill="white"/>
<path d="M208.092 251.97H205.515V239.795L205.644 239.848L208.092 241.66V251.97Z" fill="white"/>
<path d="M222.823 241.495L225.317 239.664C225.418 239.655 225.333 239.7 225.333 239.713V251.97H222.823V241.495Z" fill="white"/>
<path d="M219.52 251.97H216.977C216.969 251.712 216.986 251.451 216.978 251.193C216.93 249.759 216.937 248.309 216.909 246.874C216.903 246.579 216.91 246.283 216.917 245.988C217.755 245.259 218.665 244.601 219.52 243.886V251.97Z" fill="white"/>
<path d="M213.971 251.97H211.395V244.118C211.455 244.11 211.49 244.16 211.536 244.19C211.925 244.447 212.346 244.769 212.726 245.047C213.144 245.354 213.558 245.669 213.971 245.982V251.97Z" fill="white"/>
<mask id="mask7_1_744" style="mask-type:alpha" maskUnits="userSpaceOnUse" x="252" y="119" width="39" height="58">
<rect x="252" y="119.066" width="38.8945" height="57.8676" fill="white"/>
</mask>
<g mask="url(#mask7_1_744)">
<path d="M271.447 119.066C260.707 119.066 252 127.773 252 138.514C252 149.254 271.447 176.934 271.447 176.934C271.447 176.934 290.895 149.254 290.895 138.514C290.895 127.773 282.188 119.066 271.447 119.066ZM271.447 151.143C263.686 151.143 257.395 144.852 257.395 137.09C257.395 129.33 263.686 123.038 271.447 123.038C279.208 123.038 285.5 129.33 285.5 137.09C285.5 144.852 279.208 151.143 271.447 151.143Z" fill="white"/>
</g>
<circle cx="271.441" cy="137.711" r="15.348" fill="#BA0303"/>
<path d="M279.549 130.519L271.413 136.19L263.332 130.519H267.84L271.414 133.219L275.041 130.519H279.549Z" fill="white"/>
<path d="M264.092 144.904H261.515V132.729L261.644 132.782L264.092 134.593V144.904Z" fill="white"/>
<path d="M278.823 134.429L281.317 132.598C281.418 132.589 281.333 132.634 281.333 132.647V144.904H278.823V134.429Z" fill="white"/>
<path d="M275.52 144.903H272.977C272.969 144.646 272.986 144.385 272.978 144.127C272.93 142.693 272.937 141.243 272.909 139.807C272.903 139.513 272.91 139.216 272.917 138.922C273.755 138.192 274.665 137.535 275.52 136.82V144.903Z" fill="white"/>
<path d="M269.971 144.904H267.395V137.051C267.455 137.043 267.49 137.094 267.536 137.124C267.925 137.381 268.346 137.703 268.726 137.981C269.144 138.288 269.558 138.602 269.971 138.915V144.904Z" fill="white"/>
<mask id="mask8_1_744" style="mask-type:alpha" maskUnits="userSpaceOnUse" x="313" y="205" width="39" height="58">
<rect x="313" y="205.066" width="38.8945" height="57.8676" fill="white"/>
</mask>
<g mask="url(#mask8_1_744)">
<path d="M332.447 205.066C321.707 205.066 313 213.773 313 224.514C313 235.254 332.447 262.934 332.447 262.934C332.447 262.934 351.895 235.254 351.895 224.514C351.895 213.773 343.188 205.066 332.447 205.066ZM332.447 237.143C324.686 237.143 318.395 230.852 318.395 223.09C318.395 215.33 324.686 209.038 332.447 209.038C340.208 209.038 346.5 215.33 346.5 223.09C346.5 230.852 340.208 237.143 332.447 237.143Z" fill="white"/>
</g>
<circle cx="332.441" cy="223.711" r="15.348" fill="#BA0303"/>
<path d="M340.549 216.519L332.413 222.19L324.332 216.519H328.84L332.414 219.219L336.041 216.519H340.549Z" fill="white"/>
<path d="M325.092 230.904H322.515V218.729L322.644 218.782L325.092 220.593V230.904Z" fill="white"/>
<path d="M339.823 220.429L342.317 218.598C342.418 218.589 342.333 218.634 342.333 218.647V230.904H339.823V220.429Z" fill="white"/>
<path d="M336.52 230.903H333.977C333.969 230.646 333.986 230.385 333.978 230.127C333.93 228.693 333.937 227.243 333.909 225.807C333.903 225.513 333.91 225.216 333.917 224.922C334.755 224.192 335.665 223.535 336.52 222.82V230.903Z" fill="white"/>
<path d="M330.971 230.904H328.395V223.051C328.455 223.043 328.49 223.094 328.536 223.124C328.925 223.381 329.346 223.703 329.726 223.981C330.144 224.288 330.558 224.602 330.971 224.915V230.904Z" fill="white"/>
<mask id="mask9_1_744" style="mask-type:alpha" maskUnits="userSpaceOnUse" x="252" y="284" width="39" height="58">
<rect x="252" y="284" width="38.8945" height="57.8676" fill="white"/>
</mask>
<g mask="url(#mask9_1_744)">
<path d="M271.447 284C260.707 284 252 292.707 252 303.447C252 314.188 271.447 341.868 271.447 341.868C271.447 341.868 290.895 314.188 290.895 303.447C290.895 292.707 282.188 284 271.447 284ZM271.447 316.077C263.686 316.077 257.395 309.785 257.395 302.024C257.395 294.263 263.686 287.972 271.447 287.972C279.208 287.972 285.5 294.263 285.5 302.024C285.5 309.785 279.208 316.077 271.447 316.077Z" fill="white"/>
</g>
<circle cx="271.441" cy="302.645" r="15.348" fill="#BA0303"/>
<path d="M279.549 295.453L271.413 301.124L263.332 295.453H267.84L271.414 298.153L275.041 295.453H279.549Z" fill="white"/>
<path d="M264.092 309.837H261.515V297.663L261.644 297.716L264.092 299.527V309.837Z" fill="white"/>
<path d="M278.823 299.362L281.317 297.532C281.418 297.523 281.333 297.567 281.333 297.581V309.838H278.823V299.362Z" fill="white"/>
<path d="M275.52 309.837H272.977C272.969 309.579 272.986 309.319 272.978 309.061C272.93 307.627 272.937 306.176 272.909 304.741C272.903 304.447 272.91 304.15 272.917 303.856C273.755 303.126 274.665 302.469 275.52 301.754V309.837Z" fill="white"/>
<path d="M269.971 309.837H267.395V301.985C267.455 301.977 267.49 302.028 267.536 302.058C267.925 302.314 268.346 302.636 268.726 302.915C269.144 303.222 269.558 303.536 269.971 303.849V309.837Z" fill="white"/>
<mask id="mask10_1_744" style="mask-type:alpha" maskUnits="userSpaceOnUse" x="234" y="397" width="40" height="59">
<rect x="234.895" y="397.938" width="38.8945" height="57.8676" fill="white"/>
</mask>
<g mask="url(#mask10_1_744)">
<path d="M254.342 397.938C243.601 397.938 234.895 406.645 234.895 417.385C234.895 428.126 254.342 455.806 254.342 455.806C254.342 455.806 273.789 428.126 273.789 417.385C273.789 406.645 265.082 397.938 254.342 397.938ZM254.342 430.015C246.581 430.015 240.289 423.723 240.289 415.962C240.289 408.201 246.581 401.91 254.342 401.91C262.103 401.91 268.394 408.201 268.394 415.962C268.394 423.723 262.103 430.015 254.342 430.015Z" fill="white"/>
</g>
<circle cx="254.335" cy="416.583" r="15.348" fill="#BA0303"/>
<path d="M262.444 409.391L254.307 415.062L246.226 409.391H250.735L254.308 412.091L257.935 409.391H262.444Z" fill="white"/>
<path d="M246.986 423.775H244.41V411.601L244.538 411.654L246.986 413.465V423.775Z" fill="white"/>
<path d="M261.717 413.3L264.212 411.47C264.312 411.461 264.228 411.505 264.228 411.519V423.776H261.717V413.3Z" fill="white"/>
<path d="M258.414 423.775H255.871C255.863 423.517 255.881 423.257 255.872 422.999C255.825 421.565 255.831 420.114 255.804 418.679C255.798 418.385 255.804 418.088 255.812 417.794C256.649 417.064 257.56 416.407 258.414 415.692V423.775Z" fill="white"/>
<path d="M252.865 423.775H250.289V415.923C250.349 415.915 250.385 415.966 250.431 415.996C250.82 416.252 251.241 416.574 251.621 416.853C252.039 417.16 252.452 417.474 252.865 417.787V423.775Z" fill="white"/>
<mask id="mask11_1_744" style="mask-type:alpha" maskUnits="userSpaceOnUse" x="355" y="274" width="40" height="59">
<rect x="355.895" y="274.871" width="38.8945" height="57.8676" fill="white"/>
</mask>
<g mask="url(#mask11_1_744)">
<path d="M375.342 274.871C364.601 274.871 355.895 283.578 355.895 294.318C355.895 305.059 375.342 332.738 375.342 332.738C375.342 332.738 394.789 305.059 394.789 294.318C394.789 283.578 386.082 274.871 375.342 274.871ZM375.342 306.948C367.581 306.948 361.289 300.656 361.289 292.895C361.289 285.134 367.581 278.843 375.342 278.843C383.103 278.843 389.394 285.134 389.394 292.895C389.394 300.656 383.103 306.948 375.342 306.948Z" fill="white"/>
</g>
<circle cx="375.335" cy="293.516" r="15.348" fill="#BA0303"/>
<path d="M383.444 286.323L375.307 291.994L367.226 286.323H371.735L375.308 289.024L378.935 286.323H383.444Z" fill="white"/>
<path d="M367.986 300.708H365.41V288.534L365.538 288.587L367.986 290.398V300.708Z" fill="white"/>
<path d="M382.717 290.233L385.212 288.402C385.312 288.394 385.228 288.438 385.228 288.452V300.708H382.717V290.233Z" fill="white"/>
<path d="M379.414 300.708H376.871C376.863 300.45 376.881 300.19 376.872 299.932C376.825 298.498 376.831 297.047 376.804 295.612C376.798 295.318 376.804 295.021 376.812 294.727C377.649 293.997 378.56 293.34 379.414 292.625V300.708Z" fill="white"/>
<path d="M373.865 300.708H371.289V292.856C371.349 292.848 371.385 292.898 371.431 292.929C371.82 293.185 372.241 293.507 372.621 293.786C373.039 294.093 373.452 294.407 373.865 294.72V300.708Z" fill="white"/>
<mask id="mask12_1_744" style="mask-type:alpha" maskUnits="userSpaceOnUse" x="351" y="72" width="40" height="59">
<rect x="351.895" y="72.6724" width="38.8945" height="57.8676" fill="white"/>
</mask>
<g mask="url(#mask12_1_744)">
<path d="M371.342 72.6724C360.601 72.6724 351.895 81.3791 351.895 92.1198C351.895 102.86 371.342 130.54 371.342 130.54C371.342 130.54 390.789 102.86 390.789 92.1198C390.789 81.3791 382.082 72.6724 371.342 72.6724ZM371.342 104.749C363.581 104.749 357.289 98.4578 357.289 90.6967C357.289 82.9358 363.581 76.644 371.342 76.644C379.103 76.644 385.394 82.9358 385.394 90.6967C385.394 98.4578 379.103 104.749 371.342 104.749Z" fill="white"/>
</g>
<circle cx="371.335" cy="91.3172" r="15.348" fill="#BA0303"/>
<path d="M379.444 84.125L371.307 89.796L363.226 84.125H367.735L371.308 86.825L374.935 84.125H379.444Z" fill="white"/>
<path d="M363.986 98.5098H361.41V86.3354L361.538 86.3885L363.986 88.1996V98.5098Z" fill="white"/>
<path d="M378.717 88.0347L381.212 86.204C381.312 86.1953 381.228 86.2398 381.228 86.2531V98.51H378.717V88.0347Z" fill="white"/>
<path d="M375.414 98.5097H372.871C372.863 98.2518 372.881 97.9911 372.872 97.733C372.825 96.2993 372.831 94.8488 372.804 93.4137C372.798 93.1192 372.804 92.8227 372.812 92.5283C373.649 91.7987 374.56 91.1411 375.414 90.4265V98.5097Z" fill="white"/>
<path d="M369.865 98.5098H367.289V90.6576C367.349 90.6495 367.385 90.7 367.431 90.7304C367.82 90.9867 368.241 91.3088 368.621 91.5875C369.039 91.8943 369.452 92.2087 369.865 92.5216V98.5098Z" fill="white"/>
<mask id="mask13_1_744" style="mask-type:alpha" maskUnits="userSpaceOnUse" x="399" y="131" width="40" height="58">
<rect x="399.895" y="131.017" width="38.8945" height="57.8676" fill="white"/>
</mask>
<g mask="url(#mask13_1_744)">
<path d="M419.342 131.017C408.601 131.017 399.895 139.724 399.895 150.464C399.895 161.205 419.342 188.884 419.342 188.884C419.342 188.884 438.789 161.205 438.789 150.464C438.789 139.724 430.082 131.017 419.342 131.017ZM419.342 163.094C411.581 163.094 405.289 156.802 405.289 149.041C405.289 141.28 411.581 134.989 419.342 134.989C427.103 134.989 433.394 141.28 433.394 149.041C433.394 156.802 427.103 163.094 419.342 163.094Z" fill="white"/>
</g>
<circle cx="419.335" cy="149.662" r="15.348" fill="#BA0303"/>
<path d="M427.444 142.469L419.307 148.14L411.226 142.469H415.735L419.308 145.17L422.935 142.469H427.444Z" fill="white"/>
<path d="M411.986 156.854H409.41V144.68L409.538 144.733L411.986 146.544V156.854Z" fill="white"/>
<path d="M426.717 146.379L429.212 144.548C429.312 144.54 429.228 144.584 429.228 144.598V156.854H426.717V146.379Z" fill="white"/>
<path d="M423.414 156.854H420.871C420.863 156.596 420.881 156.336 420.872 156.077C420.825 154.644 420.831 153.193 420.804 151.758C420.798 151.464 420.804 151.167 420.812 150.873C421.649 150.143 422.56 149.486 423.414 148.771V156.854Z" fill="white"/>
<path d="M417.865 156.854H415.289V149.002C415.349 148.994 415.385 149.044 415.431 149.075C415.82 149.331 416.241 149.653 416.621 149.932C417.039 150.239 417.452 150.553 417.865 150.866V156.854Z" fill="white"/>
</svg>
