<svg width="2275" height="381" viewBox="0 0 2275 381" fill="none" xmlns="http://www.w3.org/2000/svg">
<g opacity="0.0946727">
<path d="M477.058 0L261.812 150.014L48.0554 0H167.32L261.842 71.424L357.794 0H477.058Z" fill="white"/>
<path d="M68.1511 380.521H0V58.4744L3.40039 59.8778L68.1511 107.786V380.521Z" fill="white"/>
<path d="M457.836 103.422L523.818 54.9937C526.486 54.7625 524.24 55.9402 524.24 56.2934V380.523H457.836V103.422Z" fill="white"/>
<path d="M370.463 380.521H303.185C302.981 373.699 303.447 366.803 303.222 359.976C301.964 322.05 302.128 283.679 301.401 245.717C301.252 237.926 301.423 230.082 301.618 222.295C323.765 202.995 347.861 185.6 370.463 166.697V380.521Z" fill="white"/>
<path d="M223.676 380.521H155.525V172.806C157.123 172.593 158.058 173.927 159.276 174.731C169.557 181.512 180.703 190.031 190.749 197.405C201.803 205.52 212.743 213.836 223.676 222.115V380.521Z" fill="white"/>
</g>
<g opacity="0.0946727">
<path d="M2226.06 0L2010.81 150.014L1797.06 0H1916.32L2010.84 71.424L2106.79 0H2226.06Z" fill="white"/>
<path d="M1817.15 380.521H1749V58.4744L1752.4 59.8778L1817.15 107.786V380.521Z" fill="white"/>
<path d="M2206.84 103.422L2272.82 54.9937C2275.49 54.7625 2273.24 55.9402 2273.24 56.2934V380.523H2206.84V103.422Z" fill="white"/>
<path d="M2119.46 380.521H2052.19C2051.98 373.699 2052.45 366.803 2052.22 359.976C2050.96 322.05 2051.13 283.679 2050.4 245.717C2050.25 237.926 2050.42 230.082 2050.62 222.295C2072.77 202.995 2096.86 185.6 2119.46 166.697V380.521Z" fill="white"/>
<path d="M1972.68 380.521H1904.52V172.806C1906.12 172.593 1907.06 173.927 1908.28 174.731C1918.56 181.512 1929.7 190.031 1939.75 197.405C1950.8 205.52 1961.74 213.836 1972.68 222.115V380.521Z" fill="white"/>
</g>
</svg>
