<svg width="1920" height="571" viewBox="0 0 1920 571" fill="none" xmlns="http://www.w3.org/2000/svg">
<g opacity="0.05">
<path d="M438.873 0.00012207L115.878 225.11L-204.883 0.00012207H-25.9161L115.922 107.178L259.906 0.00012207H438.873Z" fill="#888888"/>
<path d="M410.029 155.194L509.04 82.5229C513.044 82.176 509.674 83.9433 509.674 84.4732V571.008H410.029V155.194Z" fill="#888888"/>
<path d="M278.917 571.005H177.962C177.656 560.768 178.355 550.421 178.016 540.175C176.129 483.264 176.374 425.685 175.285 368.72C175.06 357.029 175.318 345.259 175.61 333.574C208.844 304.612 245.001 278.51 278.917 250.143V571.005Z" fill="#888888"/>
<path d="M58.6504 571.005H-43.6164V259.31C-41.2184 258.99 -39.8143 260.993 -37.9868 262.2C-22.5596 272.375 -5.83435 285.158 9.24066 296.223C25.8287 308.4 42.2452 320.88 58.6504 333.303V571.005Z" fill="#888888"/>
</g>
<g opacity="0.05">
<path d="M2125.87 0.00012207L1802.87 225.11L1482.11 0.00012207H1661.08L1802.92 107.178L1946.9 0.00012207H2125.87Z" fill="#888888"/>
<path d="M1512.27 571.006H1410V87.7461L1415.1 89.8521L1512.27 161.742V571.006Z" fill="#888888"/>
<path d="M1965.91 571.005H1864.96C1864.65 560.768 1865.35 550.421 1865.01 540.175C1863.12 483.264 1863.37 425.685 1862.28 368.72C1862.06 357.029 1862.31 345.259 1862.6 333.574C1895.84 304.612 1932 278.51 1965.91 250.143V571.005Z" fill="#888888"/>
<path d="M1745.64 571.005H1643.38V259.31C1645.78 258.99 1647.18 260.993 1649.01 262.2C1664.43 272.375 1681.16 285.158 1696.24 296.223C1712.82 308.4 1729.24 320.88 1745.64 333.303V571.005Z" fill="#888888"/>
</g>
</svg>
