<svg width="421" height="305" viewBox="0 0 421 305" fill="none" xmlns="http://www.w3.org/2000/svg">
<g opacity="0.05">
<path d="M381.571 0.213623L209.408 120.201L38.4366 0.213623H133.829L209.432 57.3415L286.178 0.213623H381.571Z" fill="#888888"/>
<path d="M54.51 304.57H0V46.9839L2.71979 48.1064L54.51 86.4251V304.57Z" fill="#888888"/>
<path d="M366.196 82.9349L418.971 44.1999C421.105 44.015 419.309 44.957 419.309 45.2394V304.571H366.196V82.9349Z" fill="#888888"/>
<path d="M296.311 304.57H242.5C242.337 299.113 242.71 293.598 242.529 288.137C241.523 257.802 241.654 227.111 241.073 196.748C240.954 190.516 241.091 184.243 241.247 178.014C258.961 162.577 278.233 148.664 296.311 133.544V304.57Z" fill="#888888"/>
<path d="M178.905 304.57H124.395V138.431C125.673 138.26 126.421 139.327 127.396 139.971C135.619 145.394 144.533 152.208 152.569 158.106C161.41 164.596 170.161 171.249 178.905 177.87V304.57Z" fill="#888888"/>
</g>
</svg>
