<svg width="1920" height="637" viewBox="0 0 1920 637" fill="none" xmlns="http://www.w3.org/2000/svg">
<g opacity="0.0946727">
<path d="M690.095 256.477L474.849 406.492L261.092 256.477H380.357L474.878 327.901L570.83 256.477H690.095Z" fill="white"/>
<path d="M281.188 636.999H213.037V314.952L216.437 316.355L281.188 364.263V636.999Z" fill="white"/>
<path d="M670.873 359.899L736.854 311.471C739.523 311.24 737.277 312.417 737.277 312.771V637H670.873V359.899Z" fill="white"/>
<path d="M583.5 636.998H516.222C516.018 630.176 516.484 623.281 516.258 616.453C515.001 578.527 515.164 540.156 514.438 502.194C514.289 494.403 514.46 486.56 514.655 478.772C536.802 459.472 560.897 442.077 583.5 423.174V636.998Z" fill="white"/>
<path d="M436.712 636.998H368.561V429.283C370.159 429.07 371.095 430.404 372.313 431.209C382.594 437.989 393.739 446.508 403.785 453.882C414.84 461.997 425.78 470.314 436.712 478.592V636.998Z" fill="white"/>
</g>
<g opacity="0.0946727">
<path d="M1659.1 256.477L1443.85 406.492L1230.09 256.477H1349.36L1443.88 327.901L1539.83 256.477H1659.1Z" fill="white"/>
<path d="M1250.19 636.999H1182.04V314.952L1185.44 316.355L1250.19 364.263V636.999Z" fill="white"/>
<path d="M1639.87 359.899L1705.85 311.471C1708.52 311.24 1706.28 312.417 1706.28 312.771V637H1639.87V359.899Z" fill="white"/>
<path d="M1552.5 636.998H1485.22C1485.02 630.176 1485.48 623.281 1485.26 616.453C1484 578.527 1484.16 540.156 1483.44 502.194C1483.29 494.403 1483.46 486.56 1483.66 478.772C1505.8 459.472 1529.9 442.077 1552.5 423.174V636.998Z" fill="white"/>
<path d="M1405.71 636.998H1337.56V429.283C1339.16 429.07 1340.1 430.404 1341.31 431.209C1351.59 437.989 1362.74 446.508 1372.79 453.882C1383.84 461.997 1394.78 470.314 1405.71 478.592V636.998Z" fill="white"/>
</g>
<g opacity="0.7">
<path opacity="0.6" d="M55.5205 79.75H371.479L213.5 316.1L55.5205 79.75Z" stroke="#C4C4C4"/>
<path opacity="0.6" d="M-94.4824 340H221.482L63.5 577.099L-94.4824 340Z" stroke="#C4C4C4"/>
<path opacity="0.6" d="M1548.52 79.75H1864.48L1706.5 316.1L1548.52 79.75Z" stroke="#C4C4C4"/>
<path opacity="0.6" d="M1698.52 340H2014.48L1856.5 577.099L1698.52 340Z" stroke="#C4C4C4"/>
</g>
</svg>
