<svg width="53" height="54" viewBox="0 0 53 54" fill="none" xmlns="http://www.w3.org/2000/svg">
<mask id="mask0_1_654" style="mask-type:alpha" maskUnits="userSpaceOnUse" x="0" y="0" width="53" height="54">
<rect y="0.5" width="53" height="53" fill="#BA0203"/>
</mask>
<g mask="url(#mask0_1_654)">
<path d="M1.60411 53.0938H49.9641C50.4212 53.0953 50.8027 52.7454 50.8407 52.2899L52.5158 32.2009C52.5957 31.2359 51.8782 30.389 50.9132 30.309C50.8637 30.3049 50.8141 30.303 50.7644 30.3031H34.1159C33.2062 30.3081 32.4498 31.0046 32.3697 31.9107L32.2023 33.9189C30.3237 32.1588 27.8457 31.1794 25.2713 31.1796H25.0268C24.4546 30.4501 23.6751 29.9108 22.7907 29.6325V28.692C25.294 27.0102 26.8817 24.2679 27.0937 21.2596C27.9524 20.9798 28.6592 20.3605 29.0493 19.5459C29.682 18.1339 29.9416 16.5832 29.8032 15.0422V13.0077C29.8601 6.16821 24.3705 0.573241 17.5313 0.5C10.692 0.573241 5.20247 6.16821 5.25938 13.0077V15.0422C5.1208 16.5853 5.38161 18.138 6.01675 19.5512C6.40565 20.3642 7.11146 20.9819 7.96888 21.2596C8.18141 24.2678 9.76898 27.0098 12.2719 28.692V29.6325C11.3875 29.9108 10.608 30.4501 10.0358 31.1796H9.79127C4.3925 31.1796 0 35.3521 0 40.48V51.4896C0.00102722 52.3751 0.718644 53.0927 1.60411 53.0938ZM17.5313 34.1196C18.2875 34.2168 19.0164 34.4655 19.6745 34.8507L18.691 37.3156H16.3716L15.389 34.8612C16.0469 34.4747 16.7751 34.2227 17.5313 34.1196ZM16.5863 39.0687H18.4762L19.4763 51.3406H15.5862L16.5863 39.0687ZM20.175 38.3271L20.964 36.3523C21.0024 36.45 21.0354 36.5497 21.063 36.6511C21.18 37.1209 21.6557 37.4068 22.1254 37.2897C22.2021 37.2707 22.2757 37.2414 22.3445 37.2025C22.8036 36.9241 23.2269 36.5906 23.6049 36.2094C23.3928 41.4942 22.6618 47.5836 21.1444 50.2344L20.175 38.3271ZM13.4991 37.2445C13.7506 37.1364 13.937 36.9169 14.0031 36.6511C14.0306 36.5497 14.0637 36.45 14.1022 36.3523L14.8911 38.3271L13.9014 50.4316C12.4359 48.0579 11.6644 41.8755 11.4523 36.2041C11.8312 36.5877 12.2561 36.9231 12.7172 37.2025C12.9556 37.3372 13.2431 37.3528 13.4947 37.2445H13.4991ZM30.7499 51.3406H27.1735V48.7109H30.969L30.7499 51.3406ZM50.7653 32.0563L49.1577 51.3406H32.5091L34.1159 32.0563H50.7653ZM31.999 36.3558L31.118 46.9577H27.1735C26.2052 46.9577 25.4203 47.7426 25.4203 48.7109V51.3406H22.4952C23.6803 49.4445 24.5026 46.1645 24.9874 41.4109C25.3449 37.8977 25.4107 34.5036 25.4203 32.9415C28.031 32.97 30.4729 34.2372 31.999 36.3558ZM23.6611 32.2771C23.5755 33.3422 23.0856 34.3342 22.2919 35.0497C21.8114 34.2483 21.1143 33.599 20.2811 33.1764C21.1045 32.7336 21.8119 32.103 22.3463 31.3357C22.8712 31.5064 23.3305 31.8352 23.6611 32.2771ZM17.5313 2.25306C23.2861 2.32393 27.9407 6.95948 28.0351 12.714C27.6957 12.6275 27.3404 12.6251 26.9999 12.707C26.2531 9.66795 23.2657 8.1112 21.4091 7.64659C20.7952 7.48048 20.1394 7.58547 19.6078 7.93493C17.1324 9.61444 12.4051 10.4068 10.0025 10.5112C8.84438 10.5738 7.92656 11.5118 7.88906 12.671C7.60185 12.6242 7.30817 12.6361 7.02568 12.7061C7.1244 6.95403 11.7787 2.32291 17.5313 2.25306ZM9.71063 21.0396C9.6755 20.3716 9.22312 19.7984 8.58162 19.609C8.1433 19.4929 7.77977 19.1872 7.59014 18.7754C7.07859 17.6017 6.87961 16.3155 7.01253 15.0422C7.00966 14.8284 7.10694 14.6256 7.2755 14.4943C7.35275 14.433 7.44777 14.3985 7.54638 14.3962C7.58336 14.396 7.62024 14.4011 7.65588 14.411C7.76693 14.4619 7.85506 14.5522 7.90314 14.6644C7.98891 15.1408 8.44469 15.4575 8.92122 15.3717C9.33272 15.2975 9.63462 14.943 9.64222 14.525V12.7631C9.63359 12.5068 9.82538 12.2878 10.0805 12.2625C12.7742 12.1451 17.7943 11.2825 20.5826 9.39091C20.7 9.32199 20.8407 9.30514 20.9709 9.34448C21.155 9.39009 25.4203 10.4989 25.4203 14.1744V14.525C25.4212 15.0091 25.8143 15.4009 26.2984 15.4001C26.7276 15.3993 27.0931 15.0879 27.1621 14.6644C27.2095 14.5525 27.2971 14.4624 27.4075 14.4119C27.5407 14.376 27.6831 14.4066 27.7897 14.4943C27.9583 14.6256 28.0556 14.8284 28.0527 15.0422C28.1863 16.3145 27.9882 17.5997 27.4777 18.7728C27.2849 19.1927 26.9128 19.5032 26.4652 19.6178C25.8331 19.8102 25.389 20.3779 25.3546 21.0379C25.1388 25.2144 21.7132 28.5037 17.5313 28.5499C13.351 28.5024 9.92728 25.2145 9.71063 21.0396ZM17.5313 30.3031C18.7327 30.3033 19.9231 30.0727 21.0375 29.6238V30.1181C20.8385 30.5082 20.0076 31.7906 17.5313 32.3384C15.0445 31.7889 14.2161 30.4976 14.0251 30.1208V29.6238C15.1395 30.0727 16.3298 30.3033 17.5313 30.3031ZM12.7163 31.3322C13.2506 32.0994 13.9581 32.7301 14.7815 33.1729C13.9485 33.5956 13.2517 34.2446 12.7706 35.0453C11.9767 34.3304 11.4867 33.3386 11.4014 32.2736C11.7323 31.8319 12.1916 31.5031 12.7163 31.3322ZM1.75316 40.48C1.89584 36.2402 5.40031 32.8915 9.64222 32.9415C9.65095 34.5439 9.71495 38.0791 10.0752 41.6817C10.5398 46.3275 11.3243 49.5174 12.4498 51.3423H1.75316V40.48Z" fill="#BA0203"/>
<path d="M41.6113 43.4517C43.5548 43.4039 45.202 42.0074 45.5673 40.098C45.7457 39.1819 45.5095 38.2339 44.9221 37.5086C44.3286 36.8122 43.4535 36.4195 42.5387 36.4392C40.5953 36.4871 38.9482 37.8835 38.5828 39.7929C38.4043 40.7089 38.6406 41.6571 39.228 42.3823C39.8214 43.0787 40.6966 43.4714 41.6113 43.4517ZM40.3079 40.098C40.5315 39.0292 41.4482 38.2462 42.5387 38.1924C42.9343 38.1773 43.3158 38.3395 43.5792 38.635C43.834 38.963 43.9303 39.387 43.8421 39.7929C43.6186 40.8616 42.7018 41.6448 41.6113 41.6986C41.2158 41.7137 40.8342 41.5513 40.5708 41.2559C40.3161 40.9278 40.2197 40.5038 40.3079 40.098Z" fill="#BA0203"/>
<path d="M50.8406 0.5H33.3093C32.3412 0.5 31.5563 1.2849 31.5563 2.25316V18.0313C31.5563 18.9995 32.3412 19.7844 33.3093 19.7844H36.6026L40.2149 23.3897C41.2245 24.4156 42.8744 24.4287 43.9003 23.4193C43.9102 23.4095 43.92 23.3996 43.9298 23.3897L47.5474 19.7844H50.8406C51.8089 19.7844 52.5938 18.9995 52.5938 18.0313V2.25316C52.5938 1.2849 51.8089 0.5 50.8406 0.5ZM50.8406 18.0313H47.1854C46.9533 18.0313 46.7308 18.1234 46.5665 18.2873L42.6886 22.1572C42.3491 22.4947 41.8009 22.4947 41.4614 22.1572L37.587 18.2916C37.4225 18.1253 37.1985 18.0316 36.9646 18.0313H33.3093V2.25316H50.8406V18.0313Z" fill="#BA0203"/>
<path d="M35.939 16.278H48.2109C48.695 16.278 49.0875 15.8856 49.0875 15.4015C49.0875 14.9174 48.695 14.5249 48.2109 14.5249H47.3343V9.26548C47.3343 8.78145 46.9419 8.38895 46.4578 8.38895C45.9737 8.38895 45.5813 8.78145 45.5813 9.26548V14.5249H43.8281V7.51242C43.8281 7.02829 43.4356 6.63579 42.9516 6.63579C42.4674 6.63579 42.075 7.02829 42.075 7.51242V14.5249H40.3219V11.0186C40.3219 10.5345 39.9294 10.1421 39.4453 10.1421C38.9612 10.1421 38.5687 10.5345 38.5687 11.0186V14.5249H36.8156V4.88273C36.8156 4.39861 36.4232 4.0061 35.939 4.0061C35.4549 4.0061 35.0625 4.39861 35.0625 4.88273V15.4015C35.0625 15.8856 35.4549 16.278 35.939 16.278Z" fill="#BA0203"/>
<path d="M42.9516 45.2046H39.4453C38.9612 45.2046 38.5687 45.5971 38.5687 46.0811C38.5687 46.5652 38.9612 46.9578 39.4453 46.9578H42.9516C43.4357 46.9578 43.8281 46.5652 43.8281 46.0811C43.8281 45.5971 43.4357 45.2046 42.9516 45.2046Z" fill="#BA0203"/>
</g>
</svg>
