<svg width="44" height="51" viewBox="0 0 44 51" fill="none" xmlns="http://www.w3.org/2000/svg">
<mask id="mask0_1_648" style="mask-type:alpha" maskUnits="userSpaceOnUse" x="0" y="0" width="44" height="51">
<rect y="0.5" width="44" height="50" fill="#BA0203"/>
</mask>
<g mask="url(#mask0_1_648)">
<path d="M32.9308 38.8547C32.3962 38.8547 31.9622 39.2886 31.9622 39.8233C31.9622 40.3579 32.3962 40.7918 32.9308 40.7918C33.4655 40.7918 33.8994 40.3579 33.8994 39.8233C33.8994 39.2886 33.4655 38.8547 32.9308 38.8547Z" fill="#BA0203"/>
<path d="M35.3156 35.7227L30.712 34.1885L29.0594 30.8831C30.5483 29.3677 31.582 27.3626 31.9306 25.2712L32.1367 24.0358H33.8994C35.5015 24.0358 36.805 22.7324 36.805 21.1302V15.0283C36.805 7.01739 30.2876 0.5 22.2767 0.5C14.2453 0.5 7.74843 6.9987 7.74843 15.0283V21.1302C7.74843 22.3928 8.55823 23.4694 9.68553 23.8692V25.0044C9.68553 26.6066 10.989 27.9101 12.5912 27.9101H13.4418C13.8616 28.8221 14.4051 29.6669 15.0664 30.4258C15.2036 30.5835 15.3466 30.7363 15.4932 30.885L13.8414 34.1885L9.23777 35.7228C3.88506 37.5076 0 43.1426 0 49.1214C0 49.6563 0.433621 50.0899 0.968553 50.0899H43.5849C44.1197 50.0899 44.5534 49.6563 44.5534 49.1214C44.5534 43.1426 40.6685 37.5076 35.3156 35.7227ZM34.8679 21.1302C34.8679 21.6642 34.4334 22.0987 33.8994 22.0987H32.4212C32.6674 20.1917 32.8314 18.1622 32.8974 16.1634C32.8993 16.1071 32.9009 16.0523 32.9026 15.9969H34.8679V21.1302ZM10.6541 22.0987C10.12 22.0987 9.68553 21.6642 9.68553 21.1302V15.9969H11.6515C11.6547 16.0979 11.6581 16.1994 11.6619 16.3016C11.662 16.305 11.6622 16.3084 11.6623 16.3119C11.7301 18.256 11.892 20.2336 12.1326 22.0986L10.6541 22.0987ZM12.5912 25.9729C12.0571 25.9729 11.6226 25.5385 11.6226 25.0044V24.0358H12.4167L12.6228 25.2716C12.6621 25.5065 12.7104 25.7405 12.7663 25.9729H12.5912ZM11.6243 14.0597H9.72234C10.2129 7.5684 15.6302 2.43711 22.2767 2.43711C28.8937 2.43711 34.3348 7.56773 34.831 14.0597H32.9293C32.8595 8.71072 28.5036 4.37421 23.1437 4.37421H21.41C16.0501 4.37421 11.6939 8.71072 11.6243 14.0597ZM21.4099 6.31132H23.1436C27.4836 6.31132 30.9962 9.86116 30.9937 14.1963C30.9937 14.5011 30.9913 14.7665 30.9861 15.008C30.9861 15.0111 30.986 15.0143 30.986 15.0174L29.7746 14.8444C26.4834 14.3744 23.3759 12.8207 21.0245 10.4692C20.8428 10.2876 20.5965 10.1855 20.3396 10.1855C17.7385 10.1855 15.2485 11.3707 13.6026 13.3728C14.0082 9.42899 17.3422 6.31132 21.4099 6.31132ZM14.7743 25.9729C14.2895 24.36 13.7347 19.6141 13.612 16.5728L14.9156 14.8347C16.1129 13.2389 17.9755 12.2474 19.9568 12.1336C22.5639 14.6146 25.9366 16.253 29.5007 16.7619L30.9266 16.9657C30.8313 18.9885 30.6365 21.0184 30.3575 22.8853L30.3572 22.8872C30.2684 23.4874 30.1985 23.8737 30.0199 24.9526C29.507 28.0292 27.2113 30.8114 24.1808 31.5691C22.9336 31.8804 21.6197 31.8803 20.3731 31.5691C18.4809 31.096 16.7458 29.7867 15.6261 27.9101H17.6005C18.0004 29.0374 19.0769 29.8472 20.3396 29.8472H22.2767C23.8821 29.8472 25.1824 28.547 25.1824 26.9415C25.1824 25.3393 23.8789 24.0358 22.2767 24.0358H20.3396C19.0488 24.0358 17.9882 24.8696 17.5989 25.9729H14.7743ZM20.2582 33.5292C20.9225 33.6692 21.5998 33.7407 22.2767 33.7407C22.8066 33.7407 23.3366 33.6964 23.8606 33.6104L22.1492 35.4203L20.2582 33.5292ZM20.8176 36.8284L17.7455 40.0771C16.8998 38.4583 16.1731 36.7735 15.577 35.0487L16.7307 32.7414L20.8176 36.8284ZM27.6586 32.4132L28.9762 35.0486C28.3792 36.7763 27.6523 38.4617 26.8074 40.0786L23.5194 36.7905L27.6586 32.4132ZM19.3711 26.9415C19.3711 26.4068 19.8048 25.9729 20.3396 25.9729H22.2767C22.8108 25.9729 23.2453 26.4074 23.2453 26.9415C23.2453 27.4763 22.8115 27.9101 22.2767 27.9101H20.3396C19.8056 27.9101 19.3711 27.4756 19.3711 26.9415ZM1.97585 48.1528C2.35969 43.3547 5.55291 38.9935 9.85038 37.5604L13.9274 36.2017C14.6744 38.2672 15.5997 40.2747 16.6842 42.1816C16.686 42.1849 16.6878 42.1882 16.6896 42.1914C17.482 43.585 18.3739 44.9471 19.3408 46.24L20.5324 48.1528H1.97585ZM22.2767 47.2894L20.9632 45.1806C20.9484 45.157 20.9328 45.134 20.9161 45.1117C20.1318 44.0655 19.4001 42.9713 18.7338 41.8514L22.1879 38.1986L25.8275 41.8382C25.1567 42.9663 24.4226 44.065 23.6375 45.1116C23.5901 45.1748 23.6574 45.0751 22.2767 47.2894ZM24.0211 48.1528L25.2125 46.2401C26.1837 44.9423 27.0819 43.5694 27.8822 42.1594C27.8871 42.1509 27.8916 42.1422 27.8965 42.1336L27.8982 42.1305C28.9689 40.2419 29.8846 38.2518 30.626 36.2017L34.703 37.5604C39.0005 38.9935 42.1938 43.3547 42.5776 48.1528H24.0211Z" fill="#BA0203"/>
<path d="M39.6667 44.2333C39.0194 42.9376 38.0713 41.7866 36.9248 40.9046C36.5008 40.5783 35.8927 40.6576 35.5666 41.0817C35.2404 41.5057 35.3197 42.1138 35.7437 42.44C36.6593 43.1444 37.4166 44.0639 37.9336 45.0989C38.1732 45.5783 38.7553 45.7712 39.233 45.5326C39.7114 45.2935 39.9056 44.7118 39.6667 44.2333Z" fill="#BA0203"/>
</g>
</svg>
