<svg width="49" height="52" viewBox="0 0 49 52" fill="none" xmlns="http://www.w3.org/2000/svg">
<mask id="mask0_1_645" style="mask-type:alpha" maskUnits="userSpaceOnUse" x="0" y="0" width="49" height="52">
<rect x="0.0145264" y="0.630859" width="48.9855" height="50.7382" fill="#BA0203"/>
</mask>
<g mask="url(#mask0_1_645)">
<path d="M26.4299 51.3691C26.227 51.3691 26.0232 51.307 25.8482 51.1801L20.3861 47.2162C20.1648 47.0556 20.0196 46.8107 19.985 46.5395C19.9505 46.2682 20.0295 45.9947 20.2035 45.7838L23.8864 41.3168L21.5374 36.6406L19.9536 36.4823C19.447 36.4316 19.0613 36.0054 19.0613 35.4962V29.8054L16.9105 28.601C16.6981 28.482 16.5368 28.2889 16.4576 28.0586L15.4521 25.1337L11.7883 24.0064C11.5512 23.9334 11.3502 23.7743 11.2247 23.5604L9.86036 21.233L6.83769 22.5345C6.52057 22.6709 6.1556 22.6327 5.87376 22.4335L0.433511 18.589C0.170803 18.4033 0.0145264 18.1016 0.0145264 17.7797V13.8821C0.0145264 13.4118 0.345116 13.0063 0.805721 12.9114L4.83483 12.0822V6.47653C4.83483 5.92921 5.27858 5.48555 5.8258 5.48555H8.85511C9.00217 5.48555 9.14745 5.51835 9.28034 5.58138L10.1472 5.99323L11.7972 4.71507V3.11038C11.7972 2.67961 12.0755 2.29828 12.4856 2.16668L17.1274 0.678431C17.5753 0.534542 18.0621 0.725701 18.2931 1.13517L19.0726 2.51709C19.1564 2.66563 19.2004 2.83331 19.2004 3.00395V5.64064L19.2805 5.72071L23.4038 4.06836C23.521 4.02139 23.6461 3.99721 23.7725 3.99721H26.0119L27.3442 2.25923C27.5479 1.99365 27.872 1.84867 28.2055 1.87394C28.5392 1.89921 28.8377 2.09126 28.999 2.38449L30.1683 4.51053C30.2488 4.6569 30.291 4.8211 30.291 4.98808V6.67888L32.2414 7.7865C32.7173 8.05683 32.884 8.66172 32.6137 9.13759C32.3434 9.61346 31.7386 9.77994 31.2626 9.5099L28.8109 8.11778C28.5008 7.94168 28.3093 7.61258 28.3093 7.25603V5.24286L27.994 4.66968L27.2875 5.59119C27.1 5.83586 26.8093 5.97925 26.501 5.97925H23.9637L19.411 7.80374C19.0429 7.95139 18.6222 7.86518 18.3417 7.58463L17.509 6.75202C17.3231 6.56621 17.2186 6.3141 17.2186 6.0513V3.26428L16.9638 2.8124L13.7794 3.8334V5.20094C13.7794 5.50745 13.6376 5.79662 13.3953 5.98431L10.8795 7.93316C10.5841 8.16217 10.185 8.20518 9.84737 8.04484L8.63185 7.4674H6.81697V12.8898C6.81697 13.3601 6.48638 13.7656 6.02578 13.8604L1.99667 14.6897V17.2664L6.56428 20.4942L9.88087 19.0662C10.3406 18.8685 10.8749 19.0439 11.1277 19.4752L12.7398 22.2253L16.5169 23.3875C16.8198 23.4807 17.0597 23.7129 17.1628 24.0125L18.2091 27.0564L20.5366 28.3597C20.8496 28.535 21.0434 28.8656 21.0434 29.2244V34.5992L22.277 34.7226C22.6146 34.7563 22.9115 34.9605 23.0638 35.2638L25.9474 41.004C26.1236 41.3547 26.0763 41.7763 25.8265 42.0792L22.4033 46.2311L26.3111 49.0669L30.5417 44.63V39.8543C30.5417 39.4637 30.7711 39.1095 31.1277 38.9499L38.0484 35.851L42.3408 30.8756V24.4411C42.3408 24.2068 42.424 23.9799 42.5753 23.8009L47.0181 18.5505V15.8819L42.8625 12.5574L40.2137 12.4629C40.1227 12.4596 40.0326 12.4439 39.9458 12.416L39.9133 12.4056C39.3922 12.2382 39.1057 11.6799 39.2731 11.1589C39.4265 10.6818 39.9072 10.401 40.3876 10.4859L43.2608 10.5885C43.4735 10.5961 43.6783 10.672 43.8445 10.805L48.6281 14.6319C48.8631 14.8199 49 15.1046 49 15.4057V18.9136C49 19.1479 48.917 19.3748 48.7655 19.5537L44.3228 24.8042V31.2444C44.3228 31.482 44.2375 31.7117 44.0821 31.8917L39.405 37.313C39.3101 37.423 39.1922 37.5108 39.0597 37.5701L32.5237 40.4967V45.027C32.5237 45.2817 32.4256 45.5266 32.2498 45.7109L27.1475 51.0622C26.9541 51.2647 26.6929 51.3691 26.4299 51.3691Z" fill="#BA0203"/>
<path d="M35.9689 11.0928C35.7083 11.0928 35.4526 10.9868 35.2682 10.8024C35.084 10.6181 34.9779 10.3624 34.9779 10.1018C34.9779 9.8412 35.0838 9.58553 35.2682 9.4012C35.4526 9.21688 35.7083 9.11084 35.9689 9.11084C36.2295 9.11084 36.4852 9.21688 36.6694 9.4012C36.8537 9.58553 36.9599 9.8412 36.9599 10.1018C36.9599 10.3624 36.8538 10.6181 36.6694 10.8024C36.4852 10.9868 36.2295 11.0928 35.9689 11.0928Z" fill="#BA0203"/>
</g>
</svg>
