<svg width="56" height="45" viewBox="0 0 56 45" fill="none" xmlns="http://www.w3.org/2000/svg">
<mask id="mask0_1_760" style="mask-type:alpha" maskUnits="userSpaceOnUse" x="0" y="0" width="56" height="45">
<rect x="0.544312" y="0.179688" width="55.4557" height="44.7036" fill="white"/>
</mask>
<g mask="url(#mask0_1_760)">
<path fill-rule="evenodd" clip-rule="evenodd" d="M11.7103 26.8192H1.33012C0.896466 26.8192 0.544312 26.467 0.544312 26.0334C0.544312 25.5996 0.896466 25.2476 1.33012 25.2476H11.4611C11.3523 24.3566 11.2963 23.4497 11.2963 22.5302C11.2963 10.2197 21.3363 0.179688 33.6494 0.179688C45.9599 0.179688 56 10.2197 56 22.5302C56 34.8433 45.9599 44.8833 33.6494 44.8833C25.9141 44.8833 19.0758 40.9209 15.0605 34.9218H5.89399C5.46022 34.9218 5.10818 34.5697 5.10818 34.136C5.10818 33.7023 5.46022 33.3502 5.89399 33.3502H14.0994C13.6554 32.5521 13.2589 31.7242 12.9137 30.8705H2.96213C2.52848 30.8705 2.17633 30.5183 2.17633 30.0847C2.17633 29.651 2.52848 29.2989 2.96213 29.2989H12.3462C12.0884 28.4911 11.8755 27.6635 11.7103 26.8192ZM16.9833 34.9218C20.7773 40.0083 26.8394 43.3116 33.6494 43.3116C45.0943 43.3116 54.4284 33.9776 54.4284 22.5302C54.4284 11.0854 45.0943 1.75131 33.6494 1.75131C22.2021 1.75131 12.8679 11.0853 12.8679 22.5302C12.8679 23.4509 12.9283 24.3579 13.0453 25.2476H17.9017C18.3355 25.2476 18.6875 25.5996 18.6875 26.0334C18.6875 26.467 18.3355 26.8192 17.9017 26.8192H13.3142C13.4929 27.6656 13.7235 28.4934 14.0022 29.2989H19.5337C19.9675 29.2989 20.3195 29.651 20.3195 30.0847C20.3195 30.5183 19.9675 30.8705 19.5337 30.8705H14.6193C14.9975 31.7288 15.4321 32.5569 15.9186 33.3502H22.4656C22.669 33.3502 22.8644 33.4291 23.0109 33.5702C25.7732 36.2324 29.5259 37.8737 33.6493 37.8737C42.1004 37.8737 48.9928 30.9814 48.9928 22.5304C48.9928 14.0793 42.1004 7.18697 33.6493 7.18697C26.6345 7.18697 20.6919 11.9356 18.8747 18.3828L19.7182 17.5803C20.0324 17.2814 20.5301 17.2937 20.8291 17.6079C21.128 17.9221 21.1157 18.42 20.8015 18.719L18.1681 21.2243C17.9802 21.4032 17.7163 21.4777 17.4627 21.4236C17.209 21.3696 16.9984 21.1938 16.8997 20.954L15.5169 17.5925C15.352 17.1915 15.5436 16.7319 15.9447 16.5668C16.3458 16.4018 16.8054 16.5936 16.9704 16.9947L17.3638 17.9508C19.3695 10.8469 25.9187 5.61536 33.6493 5.61536C42.9661 5.61536 50.5644 13.2137 50.5644 22.5304C50.5644 31.847 42.9661 39.4453 33.6493 39.4453C29.218 39.4453 25.1746 37.7269 22.1528 34.9218H16.9833ZM41.817 15.4716C41.5097 15.7777 41.0117 15.7767 40.7057 15.4693C40.3997 15.162 40.4008 14.6641 40.708 14.358L41.2374 13.8309C41.5448 13.5249 42.0428 13.5259 42.3488 13.8332C42.6548 14.1406 42.6537 14.6385 42.3465 14.9445L41.817 15.4716ZM44.4186 23.3162C43.985 23.3162 43.6328 22.964 43.6328 22.5304C43.6328 22.0967 43.985 21.7445 44.4186 21.7445H45.1634C45.5971 21.7445 45.9492 22.0967 45.9492 22.5304C45.9492 22.964 45.5971 23.3162 45.1634 23.3162H44.4186ZM35.4555 24.4811C34.9806 24.9217 34.3455 25.1914 33.6492 25.1914C32.1819 25.1914 30.9882 23.9978 30.9882 22.5304C30.9882 21.339 31.7784 20.3246 32.8634 19.9879V13.6632C32.8634 13.2295 33.2156 12.8774 33.6492 12.8774C34.083 12.8774 34.435 13.2295 34.435 13.6632V19.9883C35.518 20.3253 36.3082 21.3392 36.3082 22.5304C36.3082 22.7331 36.2853 22.9307 36.2422 23.1205L40.4734 25.5646C40.849 25.7815 40.9778 26.2625 40.7609 26.638C40.5439 27.0136 40.0629 27.1424 39.6874 26.9255L35.4555 24.4811ZM33.6492 21.4409C33.0485 21.4409 32.5599 21.9309 32.5599 22.5304C32.5599 23.1312 33.0485 23.6198 33.6492 23.6198C34.2485 23.6198 34.7366 23.1308 34.7366 22.5304C34.7366 21.9311 34.2485 21.4409 33.6492 21.4409ZM40.708 30.7027C40.4008 30.3966 40.3997 29.8987 40.7057 29.5914C41.0117 29.284 41.5097 29.283 41.817 29.5891L42.3465 30.1162C42.6537 30.4222 42.6548 30.9201 42.3488 31.2275C42.0428 31.5348 41.5448 31.5358 41.2374 31.2298L40.708 30.7027ZM34.435 11.7609C34.435 12.1947 34.083 12.5468 33.6492 12.5468C33.2156 12.5468 32.8634 12.1947 32.8634 11.7609V11.0162C32.8634 10.5826 33.2156 10.2304 33.6492 10.2304C34.083 10.2304 34.435 10.5826 34.435 11.0162V11.7609ZM22.8777 21.7445C23.3113 21.7445 23.6635 22.0967 23.6635 22.5304C23.6635 22.964 23.3113 23.3162 22.8777 23.3162H22.133C21.6992 23.3162 21.3472 22.964 21.3472 22.5304C21.3472 22.0967 21.6992 21.7445 22.133 21.7445H22.8777ZM26.5894 14.3592C26.8961 14.6659 26.8961 15.1638 26.5894 15.4705C26.2827 15.7772 25.7848 15.7772 25.4782 15.4705L24.951 14.9434C24.6443 14.6367 24.6443 14.1387 24.951 13.832C25.2577 13.5254 25.7557 13.5254 26.0622 13.832L26.5894 14.3592ZM32.8634 33.2998C32.8634 32.866 33.2156 32.5139 33.6492 32.5139C34.083 32.5139 34.435 32.866 34.435 33.2998V34.0467C34.435 34.4804 34.083 34.8325 33.6492 34.8325C33.2156 34.8325 32.8634 34.4804 32.8634 34.0467V33.2998ZM25.4782 29.5902C25.7848 29.2835 26.2827 29.2835 26.5894 29.5902C26.8961 29.8969 26.8961 30.3948 26.5894 30.7015L26.0622 31.2287C25.7557 31.5353 25.2577 31.5353 24.951 31.2287C24.6443 30.922 24.6443 30.424 24.951 30.1173L25.4782 29.5902Z" fill="white"/>
</g>
</svg>
