<svg width="33" height="43" viewBox="0 0 33 43" fill="none" xmlns="http://www.w3.org/2000/svg">
<mask id="mask0_1_752" style="mask-type:alpha" maskUnits="userSpaceOnUse" x="0" y="0" width="33" height="43">
<rect x="0.21582" y="0.437988" width="32.7534" height="41.7683" fill="white"/>
</mask>
<g mask="url(#mask0_1_752)">
<path d="M12.0041 36.3831C7.97545 35.1305 5.26867 31.4515 5.26867 27.2284C5.26867 25.1642 5.91485 23.1976 7.13756 21.5411C7.16545 21.5033 7.19059 21.462 7.21163 21.4199C7.41362 21.016 7.24957 20.5253 6.8455 20.3234C6.47987 20.1402 6.04244 20.2578 5.81296 20.5812C4.3868 22.5187 3.63293 24.8169 3.63293 27.2284C3.63293 29.6703 4.4041 31.9924 5.86289 33.9428C7.2729 35.8281 9.28136 37.2496 11.5185 37.9451C11.5993 37.9703 11.6812 37.9822 11.7615 37.9822C12.1102 37.9822 12.4334 37.7574 12.5423 37.4069C12.6764 36.9756 12.4355 36.5171 12.0041 36.3831Z" fill="white"/>
<path d="M32.9692 19.5503C32.9692 17.9935 32.484 16.5103 31.5659 15.2594L26.3886 7.5736C26.2365 7.34795 25.9823 7.21269 25.7102 7.21269C25.4381 7.21269 25.1839 7.34795 25.0318 7.5736L22.8502 10.8122L16.1047 0.798974C15.9528 0.573327 15.6985 0.437988 15.4264 0.437988C15.1544 0.437988 14.9002 0.573327 14.7482 0.798974L3.16881 17.9879C1.23678 20.6135 0.21582 23.7277 0.21582 26.9957C0.21582 35.3828 7.03931 42.2063 15.4264 42.2063C23.8136 42.2063 30.6371 35.3828 30.6371 26.9957C30.6371 26.3262 30.5923 25.6554 30.5054 24.9951C32.015 23.6639 32.9692 21.7167 32.9692 19.5503ZM25.7102 9.49453L30.209 16.1729C30.218 16.1868 30.2275 16.2005 30.2374 16.2138C30.9544 17.185 31.3334 18.3386 31.3334 19.5503C31.3334 22.6509 28.8109 25.1735 25.7102 25.1735C22.6096 25.1735 20.087 22.6509 20.087 19.5503C20.087 18.3386 20.466 17.185 21.1831 16.2138C21.1926 16.201 21.2016 16.1879 21.2104 16.1744L23.5269 12.7357C23.5312 12.7294 23.5356 12.7231 23.5397 12.7166L25.7102 9.49453ZM29.0012 26.9957C29.0012 34.481 22.9115 40.5706 15.4263 40.5706C7.94108 40.5706 1.85156 34.481 1.85156 26.9957C1.85156 24.0722 2.76671 21.2869 4.49838 18.941C4.50825 18.9277 4.51787 18.9137 4.52709 18.8994L15.4264 2.71975L21.8641 12.2761L19.8545 15.2595C18.9364 16.5103 18.4513 17.9936 18.4513 19.5503C18.4513 23.553 21.7076 26.8093 25.7102 26.8093C26.8806 26.8093 27.9869 26.5305 28.9669 26.0364C28.9893 26.3554 29.0012 26.6757 29.0012 26.9957Z" fill="white"/>
<path d="M22.8264 19.3509C22.8264 18.9547 22.9072 18.5722 23.0663 18.2142C23.2498 17.8014 23.0638 17.3181 22.6512 17.1346C22.2383 16.9513 21.7551 17.1369 21.5715 17.5497C21.3187 18.1183 21.1906 18.7243 21.1906 19.3509C21.1906 20.8354 21.928 22.2151 23.1631 23.0415C23.3028 23.135 23.4608 23.1797 23.6172 23.1797C23.881 23.1797 24.14 23.0523 24.2976 22.8166C24.5488 22.4411 24.4482 21.9331 24.0727 21.6819C23.2924 21.1597 22.8264 20.2884 22.8264 19.3509Z" fill="white"/>
<path d="M15.0386 37.5162C14.8384 36.9899 14.0913 36.8399 13.7046 37.2512C13.2442 37.6974 13.4921 38.5166 14.1234 38.631C14.7493 38.7681 15.2949 38.1038 15.0386 37.5162Z" fill="white"/>
<path d="M25.2793 23.7871C25.8067 24.1525 26.5619 23.7486 26.5512 23.1075C26.563 22.4663 25.8064 22.0617 25.2793 22.427C24.8017 22.7264 24.7998 23.4888 25.2793 23.7871Z" fill="white"/>
</g>
</svg>
