<svg width="43" height="43" viewBox="0 0 43 43" fill="none" xmlns="http://www.w3.org/2000/svg">
<mask id="mask0_4_324" style="mask-type:alpha" maskUnits="userSpaceOnUse" x="5" y="0" width="33" height="43">
<rect x="5.21582" y="0.437988" width="32.7534" height="41.7683" fill="white"/>
</mask>
<g mask="url(#mask0_4_324)">
<path d="M17.0041 36.3831C12.9754 35.1305 10.2687 31.4515 10.2687 27.2284C10.2687 25.1642 10.9149 23.1976 12.1376 21.5411C12.1655 21.5033 12.1906 21.462 12.2116 21.4199C12.4136 21.016 12.2496 20.5253 11.8455 20.3234C11.4799 20.1402 11.0424 20.2578 10.813 20.5812C9.3868 22.5187 8.63293 24.8169 8.63293 27.2284C8.63293 29.6703 9.4041 31.9924 10.8629 33.9428C12.2729 35.8281 14.2814 37.2496 16.5185 37.9451C16.5993 37.9703 16.6812 37.9822 16.7615 37.9822C17.1102 37.9822 17.4334 37.7574 17.5423 37.4069C17.6764 36.9756 17.4355 36.5171 17.0041 36.3831Z" fill="white"/>
<path d="M37.9692 19.5503C37.9692 17.9935 37.484 16.5103 36.5659 15.2594L31.3886 7.5736C31.2365 7.34795 30.9823 7.21269 30.7102 7.21269C30.4381 7.21269 30.1839 7.34795 30.0318 7.5736L27.8502 10.8122L21.1047 0.798974C20.9528 0.573327 20.6985 0.437988 20.4264 0.437988C20.1544 0.437988 19.9002 0.573327 19.7482 0.798974L8.16881 17.9879C6.23678 20.6135 5.21582 23.7277 5.21582 26.9957C5.21582 35.3828 12.0393 42.2063 20.4264 42.2063C28.8136 42.2063 35.6371 35.3828 35.6371 26.9957C35.6371 26.3262 35.5923 25.6554 35.5054 24.9951C37.015 23.6639 37.9692 21.7167 37.9692 19.5503ZM30.7102 9.49453L35.209 16.1729C35.218 16.1868 35.2275 16.2005 35.2374 16.2138C35.9544 17.185 36.3334 18.3386 36.3334 19.5503C36.3334 22.6509 33.8109 25.1735 30.7102 25.1735C27.6096 25.1735 25.087 22.6509 25.087 19.5503C25.087 18.3386 25.466 17.185 26.1831 16.2138C26.1926 16.201 26.2016 16.1879 26.2104 16.1744L28.5269 12.7357C28.5312 12.7294 28.5356 12.7231 28.5397 12.7166L30.7102 9.49453ZM34.0012 26.9957C34.0012 34.481 27.9115 40.5706 20.4263 40.5706C12.9411 40.5706 6.85156 34.481 6.85156 26.9957C6.85156 24.0722 7.76671 21.2869 9.49838 18.941C9.50825 18.9277 9.51787 18.9137 9.52709 18.8994L20.4264 2.71975L26.8641 12.2761L24.8545 15.2595C23.9364 16.5103 23.4513 17.9936 23.4513 19.5503C23.4513 23.553 26.7076 26.8093 30.7102 26.8093C31.8806 26.8093 32.9869 26.5305 33.9669 26.0364C33.9893 26.3554 34.0012 26.6757 34.0012 26.9957Z" fill="white"/>
<path d="M27.8264 19.3509C27.8264 18.9547 27.9072 18.5722 28.0663 18.2142C28.2498 17.8014 28.0638 17.3181 27.6512 17.1346C27.2383 16.9513 26.7551 17.1369 26.5715 17.5497C26.3187 18.1183 26.1906 18.7243 26.1906 19.3509C26.1906 20.8354 26.928 22.2151 28.1631 23.0415C28.3028 23.135 28.4608 23.1797 28.6172 23.1797C28.881 23.1797 29.14 23.0523 29.2976 22.8166C29.5488 22.4411 29.4482 21.9331 29.0727 21.6819C28.2924 21.1597 27.8264 20.2884 27.8264 19.3509Z" fill="white"/>
<path d="M20.0386 37.5162C19.8384 36.9899 19.0913 36.8399 18.7046 37.2512C18.2442 37.6974 18.4921 38.5166 19.1234 38.631C19.7493 38.7681 20.2949 38.1038 20.0386 37.5162Z" fill="white"/>
<path d="M30.2793 23.7871C30.8067 24.1525 31.5619 23.7486 31.5512 23.1075C31.563 22.4663 30.8064 22.0617 30.2793 22.427C29.8017 22.7264 29.7998 23.4888 30.2793 23.7871Z" fill="white"/>
</g>
</svg>
