<svg width="11" height="19" viewBox="0 0 11 19" fill="none" xmlns="http://www.w3.org/2000/svg">
<mask id="mask0_1_842" style="mask-type:alpha" maskUnits="userSpaceOnUse" x="0" y="-1" width="11" height="20">
<rect x="0.155884" y="-0.00292969" width="10.7452" height="18.9315" fill="white"/>
</mask>
<g mask="url(#mask0_1_842)">
<path d="M6.79299 18.9285H3.76129C3.25491 18.9285 2.84297 18.5166 2.84297 18.0102V11.172H1.07421C0.567828 11.172 0.155884 10.76 0.155884 10.2537V7.32355C0.155884 6.81717 0.567828 6.40523 1.07421 6.40523H2.84297V4.93793C2.84297 3.48301 3.2998 2.24522 4.16396 1.35851C5.03203 0.467769 6.24516 -0.00292969 7.67216 -0.00292969L9.98432 0.000804842C10.4898 0.00169225 10.901 0.4136 10.901 0.919129V3.63971C10.901 4.14613 10.4893 4.55804 9.98299 4.55804L8.42628 4.55863C7.95151 4.55863 7.8306 4.65381 7.80475 4.68298C7.76216 4.73138 7.71147 4.86815 7.71147 5.24586V6.40508H9.86599C10.0282 6.40508 10.1854 6.44512 10.3204 6.52052C10.6117 6.68328 10.7929 6.99107 10.7929 7.3237L10.7917 10.2539C10.7917 10.76 10.3798 11.1719 9.87339 11.1719H7.71147V18.0102C7.71147 18.5166 7.29937 18.9285 6.79299 18.9285ZM3.95283 17.8187H6.60146V10.6752C6.60146 10.3371 6.87663 10.0621 7.21459 10.0621H9.68186L9.68285 7.51508H7.21444C6.87648 7.51508 6.60146 7.2401 6.60146 6.90196V5.24586C6.60146 4.81225 6.64553 4.31914 6.97281 3.94853C7.3683 3.5005 7.99152 3.44877 8.42598 3.44877L9.79119 3.44822V1.11037L7.67131 1.10689C5.37794 1.10689 3.95283 2.57497 3.95283 4.93793V6.90196C3.95283 7.23995 3.6778 7.51508 3.33981 7.51508H1.26574V10.0621H3.33981C3.6778 10.0621 3.95283 10.3371 3.95283 10.6752V17.8187Z" fill="white"/>
</g>
</svg>
