<svg width="55" height="37" viewBox="0 0 55 37" fill="none" xmlns="http://www.w3.org/2000/svg">
<mask id="mask0_46_572" style="mask-type:alpha" maskUnits="userSpaceOnUse" x="0" y="0" width="55" height="37">
<rect x="0.666687" y="0.0849609" width="53.6667" height="36.8301" fill="#BA0203"/>
</mask>
<g mask="url(#mask0_46_572)">
<path d="M54.1949 22.4714L51.4784 18.3151C50.2789 16.4785 48.2409 15.3817 46.0255 15.3817H39.0001V11.3389C39.0001 8.87048 36.9928 6.86322 34.5244 6.86322H21.3729C20.6349 3.00906 17.2424 0.0849609 13.1762 0.0849609C8.57182 0.0849609 4.82637 3.83091 4.82637 8.43478C4.82637 11.3296 6.3087 13.8833 8.55285 15.3817H1.51874C1.04785 15.3817 0.666687 15.7628 0.666687 16.2337C0.666687 16.7046 1.04785 17.0858 1.51874 17.0858H10.0371V18.7894H6.62946C6.15906 18.7894 5.7779 19.1705 5.7779 19.6413C5.7779 20.1122 6.15906 20.4929 6.62946 20.4929H10.0371V22.1965H1.51874C1.04785 22.1965 0.666687 22.5776 0.666687 23.0485C0.666687 23.5194 1.04785 23.9006 1.51874 23.9006H10.0371V27.6734C8.53538 28.3357 7.48151 29.8342 7.48151 31.5782V32.419C7.48151 32.8899 7.86317 33.2711 8.33357 33.2711H15.8887C16.3732 35.3554 18.2421 36.9151 20.4721 36.9151C22.7027 36.9151 24.5709 35.3554 25.0556 33.2711H41.4445C41.9296 35.3554 43.7984 36.9151 46.028 36.9151C48.2574 36.9151 50.1267 35.3554 50.6112 33.2711H53.4818C53.9527 33.2711 54.3333 32.8899 54.3333 32.419V22.9375C54.3333 22.7717 54.285 22.6093 54.1949 22.4714ZM6.52998 8.43478C6.52998 4.77021 9.51162 1.78857 13.1762 1.78857C16.8413 1.78857 19.8224 4.77021 19.8224 8.43478C19.8224 12.0992 16.8413 15.0809 13.1762 15.0809C9.51162 15.0809 6.52998 12.0992 6.52998 8.43478ZM11.7407 23.9006H13.4443C13.9152 23.9006 14.2963 23.5194 14.2963 23.0485C14.2963 22.5776 13.9152 22.1965 13.4443 22.1965H11.7407V20.4929H17.7039C18.1743 20.4929 18.5555 20.1122 18.5555 19.6413C18.5555 19.1705 18.1743 18.7894 17.7039 18.7894H11.7407V17.0858H22.8148C23.2852 17.0858 23.6668 16.7046 23.6668 16.2337C23.6668 15.7628 23.2852 15.3817 22.8148 15.3817H17.7995C20.0091 13.9062 21.4748 11.4067 21.5197 8.56683H34.5249C36.053 8.56683 37.2965 9.81078 37.2965 11.3389V27.3078H11.7514C11.748 27.3078 11.7447 27.3087 11.7407 27.3087V23.9006ZM37.2965 31.567H25.1331C24.9989 30.5872 24.5642 29.704 23.9222 29.0113H37.2965V31.567ZM11.7514 29.0113H17.0221C16.3806 29.704 15.9453 30.5872 15.8117 31.567H9.18512C9.19086 30.1573 10.3403 29.0113 11.7514 29.0113ZM20.4721 35.2116C18.8153 35.2116 17.4666 33.8633 17.4666 32.206C17.4666 30.5492 18.8153 29.2005 20.4721 29.2005C22.1295 29.2005 23.4776 30.5492 23.4776 32.206C23.4776 33.8633 22.1295 35.2116 20.4721 35.2116ZM46.028 35.2116C44.3711 35.2116 43.0224 33.8633 43.0224 32.206C43.0224 30.5492 44.3711 29.2005 46.028 29.2005C47.6851 29.2005 49.0334 30.5492 49.0334 32.206C49.0334 33.8633 47.6851 35.2116 46.028 35.2116ZM52.6297 31.567H50.6887C50.3753 29.2726 48.407 27.4969 46.028 27.4969C43.6488 27.4969 41.6809 29.2726 41.367 31.567H39.0001V17.0858H46.0255C47.6628 17.0858 49.1685 17.8934 50.0527 19.2465L52.6297 23.1908V31.567Z" fill="#BA0203"/>
<path d="M47.4216 32.2061C47.4216 32.9758 46.7976 33.5997 46.028 33.5997C45.2583 33.5997 44.6343 32.9758 44.6343 32.2061C44.6343 31.4364 45.2583 30.8125 46.028 30.8125C46.7976 30.8125 47.4216 31.4364 47.4216 32.2061Z" fill="#BA0203"/>
<path d="M21.8657 32.2061C21.8657 32.9758 21.2418 33.5997 20.4721 33.5997C19.7029 33.5997 19.079 32.9758 19.079 32.2061C19.079 31.4364 19.7029 30.8125 20.4721 30.8125C21.2418 30.8125 21.8657 31.4364 21.8657 32.2061Z" fill="#BA0203"/>
<path d="M14.2963 8.43473V4.70776C14.2963 4.23699 13.9152 3.8562 13.4443 3.8562C12.9739 3.8562 12.5927 4.23699 12.5927 4.70776V8.15692L10.854 10.542C10.5767 10.9221 10.6601 11.4544 11.0403 11.7313C11.1924 11.8425 11.3679 11.8955 11.5419 11.8955C11.8046 11.8955 12.0639 11.7742 12.2306 11.545L14.1331 8.93634C14.2388 8.79106 14.2963 8.61558 14.2963 8.43473Z" fill="#BA0203"/>
<path d="M45.7408 17.9373H44.1113C43.6404 17.9373 43.2592 18.3184 43.2592 18.7893V24.7521C43.2592 25.223 43.6404 25.6041 44.1113 25.6041H49.8445C50.3787 25.6041 50.857 25.3277 51.1251 24.8661C51.3932 24.4045 51.3936 23.8517 51.1294 23.3912L49.1401 19.9095C48.4456 18.6937 47.1427 17.9373 45.7408 17.9373ZM44.9633 23.9005V19.6414H45.7408C46.5329 19.6414 47.2684 20.0678 47.6608 20.7552L49.458 23.9005H44.9633Z" fill="#BA0203"/>
</g>
</svg>
