<svg width="51" height="38" viewBox="0 0 51 38" fill="none" xmlns="http://www.w3.org/2000/svg">
<path d="M45.9213 0.685547L25.2019 15.1258L4.62579 0.685547H16.1061L25.2047 7.56077L34.4409 0.685547H45.9213Z" fill="#BA0203"/>
<path d="M6.56021 37.3145H3.05176e-05V6.31445L0.327362 6.44955L6.56021 11.0611V37.3145Z" fill="#BA0203"/>
<path d="M44.071 10.6411L50.4223 5.97943C50.6792 5.95718 50.463 6.07055 50.463 6.10454V37.3146H44.071V10.6411Z" fill="#BA0203"/>
<path d="M35.6605 37.314H29.1845C29.1648 36.6573 29.2096 35.9936 29.1879 35.3363C29.0668 31.6856 29.0826 27.992 29.0127 24.3379C28.9983 23.5879 29.0148 22.8329 29.0336 22.0833C31.1654 20.2255 33.4848 18.5511 35.6605 16.7314V37.314Z" fill="#BA0203"/>
<path d="M21.5309 37.3141H14.9707V17.3196C15.1245 17.2991 15.2145 17.4275 15.3318 17.505C16.3214 18.1577 17.3943 18.9777 18.3614 19.6875C19.4254 20.4686 20.4785 21.2692 21.5309 22.0661V37.3141Z" fill="#BA0203"/>
</svg>
