<svg width="45" height="45" viewBox="0 0 45 45" fill="none" xmlns="http://www.w3.org/2000/svg">
<mask id="mask0_46_580" style="mask-type:alpha" maskUnits="userSpaceOnUse" x="0" y="0" width="45" height="45">
<rect x="0.256714" y="0.552734" width="44.4865" height="43.8943" fill="#BA0203"/>
</mask>
<g mask="url(#mask0_46_580)">
<path d="M44.5621 19.1779L37.1162 9.50553C36.8406 9.14781 36.3379 9.05962 35.9568 9.30199L31.1494 12.3593H24.8796C24.7985 12.3593 24.7177 12.3766 24.6396 12.3993L19.7784 13.7987L14.7341 12.419L9.83272 9.30199C9.45802 9.06371 8.96458 9.14441 8.68591 9.48995L0.450235 19.6911C0.154239 20.0577 0.203165 20.593 0.560189 20.9002L4.87678 24.6148L8.74937 29.8335C7.61675 31.0401 7.63886 32.9432 8.81728 34.1219C9.33962 34.644 10.0038 34.9389 10.687 35.0075C10.6632 35.1622 10.6511 35.3194 10.6511 35.4789C10.6511 36.3023 10.9718 37.0766 11.5539 37.6585C12.1363 38.241 12.9105 38.5617 13.7339 38.5617C13.7451 38.5617 13.7559 38.5611 13.7668 38.5607C13.7664 38.5817 13.7655 38.6025 13.7655 38.6235C13.7655 39.4469 14.0862 40.2211 14.6683 40.8035C15.2507 41.3856 16.0249 41.7063 16.8483 41.7063C17.0108 41.7063 17.1717 41.6931 17.3295 41.6686C17.3964 42.3543 17.692 43.0215 18.216 43.5456C18.8168 44.1466 19.6063 44.447 20.3957 44.447C21.1851 44.447 21.9747 44.1466 22.5757 43.5456L23.0471 43.0741L23.245 43.2336C23.841 43.8109 24.6149 44.0994 25.3887 44.0994C26.1782 44.0994 26.9676 43.7991 27.5684 43.198C28.1816 42.5847 28.4821 41.7752 28.4695 40.9698C29.2746 40.982 30.0844 40.682 30.6977 40.069C31.3103 39.456 31.6107 38.6473 31.5988 37.8421C32.4375 37.8554 33.2331 37.5334 33.8266 36.9397C34.44 36.3264 34.7403 35.5169 34.7278 34.7115C35.5336 34.7237 36.3427 34.4237 36.956 33.8104C38.0027 32.7636 38.1375 31.1457 37.3613 29.9513L40.1888 24.0294L44.4399 20.3713C44.7911 20.0689 44.8448 19.5449 44.5621 19.1779ZM9.55378 11.1921L13.0781 13.4331L5.41131 22.7736L2.33904 20.1293L9.55378 11.1921ZM10.051 30.9957L11.1146 29.932C11.1469 29.8998 11.1809 29.8692 11.2155 29.8407C11.4235 29.671 11.6754 29.5699 11.9421 29.5457C11.9496 29.5451 11.9574 29.5451 11.9648 29.5448C12.0029 29.5417 12.0409 29.5396 12.0792 29.54C12.4438 29.5451 12.7825 29.6941 13.0337 29.9592C13.5265 30.4801 13.5 31.3314 12.9746 31.8568L11.9432 32.8882C11.4215 33.4099 10.5726 33.4099 10.051 32.8882C9.52932 32.3662 9.52932 31.5173 10.051 30.9957ZM12.7876 36.4249C12.5347 36.1723 12.3956 35.8362 12.3956 35.4789C12.3956 35.1215 12.5347 34.7855 12.7876 34.5326L14.8502 32.4701C15.2453 32.0751 15.8663 31.9667 16.3714 32.2073C16.8921 32.4554 17.1849 33.0205 17.1086 33.5891C17.0678 33.8925 16.9266 34.1783 16.7101 34.3952L14.6801 36.4249C14.4273 36.6777 14.0912 36.8169 13.7339 36.8169C13.3765 36.8169 13.0404 36.6777 12.7876 36.4249ZM15.902 39.5694C15.6491 39.3169 15.5099 38.981 15.5099 38.6235C15.5099 38.2661 15.6491 37.9301 15.902 37.6773L17.9642 35.6147C18.3868 35.1925 19.0646 35.1015 19.5818 35.4025C20.0543 35.6775 20.3017 36.2171 20.2205 36.7547C20.1761 37.0504 20.0356 37.3283 19.8242 37.5398L17.7945 39.5694C17.5417 39.8223 17.2056 39.9614 16.8483 39.9614C16.4908 39.9614 16.1549 39.8223 15.902 39.5694ZM19.4495 42.3118C18.9278 41.7901 18.9278 40.9413 19.4495 40.4196L20.5131 39.3559C20.5454 39.3237 20.579 39.2935 20.6136 39.2649L20.616 39.2629C20.7891 39.1224 20.9924 39.0284 21.2093 38.9873C21.2144 38.9866 21.2194 38.986 21.2246 38.9853C21.2618 38.9785 21.2999 38.973 21.3379 38.9696C21.3532 38.9683 21.3685 38.9683 21.3841 38.9673C21.4153 38.9656 21.4461 38.9635 21.4777 38.9639C21.8419 38.969 22.181 39.1176 22.4322 39.3831C22.4631 39.4156 22.4919 39.4496 22.5183 39.4846C22.9195 40.0089 22.8655 40.7878 22.3676 41.2862L21.3417 42.3121C20.8199 42.8338 19.9711 42.8334 19.4495 42.3118ZM35.7222 32.5766C35.2006 33.0986 34.3518 33.0984 33.83 32.5766C33.8111 32.5576 33.791 32.54 33.7707 32.5234L28.1616 26.8553C27.8226 26.5128 27.2704 26.5101 26.9279 26.8492C26.5854 27.1879 26.5827 27.7401 26.9215 28.0825L32.5912 33.8114L32.5933 33.8135C33.1149 34.3351 33.1149 35.1843 32.5933 35.7059C32.3404 35.9588 32.0044 36.0979 31.647 36.0979C31.2892 36.0979 30.9533 35.9588 30.7007 35.7059L26.9079 31.8737C26.5691 31.5313 26.0169 31.5286 25.6745 31.8673C25.3321 32.2064 25.3293 32.7586 25.668 33.101L29.4029 36.8745C29.4219 36.8983 29.4422 36.921 29.4639 36.9428C29.9856 37.4644 29.9856 38.3136 29.4639 38.8353C28.9419 39.357 28.0927 39.3566 27.5711 38.835L25.501 36.7432C25.1619 36.4007 24.6097 36.3977 24.2673 36.7367C23.9249 37.0754 23.9222 37.6276 24.2609 37.9701L26.2732 40.0032C26.2922 40.0269 26.3126 40.05 26.3346 40.0717C26.8563 40.5934 26.8563 41.4426 26.3346 41.9643C25.813 42.4863 24.9641 42.4859 24.4424 41.9643C24.3823 41.9042 24.3117 41.8581 24.2445 41.8064C24.1876 41.763 24.1726 41.7328 24.2011 41.6635C24.23 41.5933 24.2731 41.5298 24.3019 41.4592C24.3339 41.3804 24.3596 41.2994 24.3848 41.2179C24.5185 40.7869 24.5578 40.3232 24.4978 39.8759C24.3823 39.0175 23.9102 38.243 23.1948 37.7529C22.8082 37.4885 22.3609 37.3151 21.8973 37.2499C22.122 36.2588 21.8521 35.1843 21.1502 34.4427C20.5725 33.8324 19.7922 33.49 18.9529 33.4785C18.9223 33.4781 18.8918 33.4781 18.861 33.4785C18.8796 32.6774 18.5884 31.8816 18.0362 31.2981C17.4582 30.6878 16.6779 30.3454 15.8388 30.3339C15.5894 30.3305 15.3376 30.3569 15.0946 30.4129C14.9907 29.6903 14.6265 29.0217 14.075 28.5436C13.5268 28.069 12.8375 27.8056 12.1034 27.7954C11.3305 27.7843 10.5713 28.0693 9.99734 28.5876L6.62533 24.044L14.6924 14.2162L17.2634 14.9195L13.9056 20.8444C13.4997 21.5609 13.3972 22.3924 13.6168 23.186C13.8363 23.9798 14.3515 24.6404 15.068 25.0462C15.1129 25.0717 15.158 25.0958 15.2038 25.1189C15.2072 25.1206 15.2106 25.1223 15.2144 25.124C15.3349 25.184 15.4587 25.2357 15.5843 25.2791C16.1691 25.4817 16.8007 25.5038 17.41 25.3354C18.2035 25.1159 18.864 24.6003 19.2699 23.8841L21.452 20.0337L25.348 20.3099L35.7226 30.6841C36.2439 31.2061 36.2439 32.055 35.7222 32.5766ZM36.0837 28.5782L26.3512 18.846C26.333 18.8273 26.3135 18.8097 26.2935 18.7931C26.1534 18.6763 25.9796 18.6057 25.7963 18.5928L21.026 18.2544C20.6961 18.2318 20.3682 18.4071 20.2053 18.6947L17.7521 23.024C17.5759 23.335 17.2891 23.5587 16.9446 23.654C16.6005 23.7494 16.2394 23.7046 15.9282 23.5285C15.6172 23.3523 15.3935 23.0655 15.2982 22.721C15.2028 22.3765 15.2473 22.0154 15.4237 21.7045L18.6987 15.9247L20.0258 15.5429C20.0346 15.5402 20.043 15.5368 20.0519 15.5341L25.0048 14.1038H30.9892L38.4602 23.6011L36.0837 28.5782ZM39.603 22.2319L32.6941 13.4444L36.2201 11.2019L42.676 19.5876L39.603 22.2319Z" fill="#BA0203"/>
<path d="M27.2079 10.7213C27.4312 10.7213 27.6546 10.6361 27.825 10.4657L33.7836 4.50714C34.1243 4.1664 34.1243 3.61419 33.7836 3.27345C33.4428 2.93261 32.8906 2.93261 32.5498 3.27345L26.5912 9.23203C26.2505 9.57278 26.2505 10.125 26.5912 10.4657C26.7616 10.6361 26.9849 10.7213 27.2079 10.7213Z" fill="#BA0203"/>
<path d="M17.1751 10.4657C17.3454 10.6361 17.5688 10.7213 17.7921 10.7213C18.0151 10.7213 18.2384 10.6361 18.4088 10.4657C18.7496 10.125 18.7496 9.5728 18.4088 9.23196L12.4502 3.27338C12.1094 2.93264 11.5572 2.93264 11.2165 3.27338C10.8758 3.61421 10.8758 4.16642 11.2165 4.50716L17.1751 10.4657Z" fill="#BA0203"/>
<path d="M22.5001 10.7214C22.9817 10.7214 23.3723 10.3308 23.3723 9.84919V4.91789C23.3723 4.43628 22.9817 4.04565 22.5001 4.04565C22.0185 4.04565 21.6278 4.43628 21.6278 4.91789V9.84919C21.6278 10.3308 22.0185 10.7214 22.5001 10.7214Z" fill="#BA0203"/>
<path d="M21.695 1.75625C21.8335 2.09195 22.1787 2.31221 22.5428 2.29323C22.9025 2.27451 23.2186 2.03153 23.3299 1.68905C23.4415 1.34386 23.3201 0.950534 23.0309 0.730539C22.7359 0.505843 22.3246 0.493393 22.016 0.697283C21.6719 0.924678 21.5385 1.37747 21.695 1.75625Z" fill="#BA0203"/>
</g>
</svg>
