<svg width="55" height="55" viewBox="0 0 55 55" fill="none" xmlns="http://www.w3.org/2000/svg">
<mask id="mask0_1_657" style="mask-type:alpha" maskUnits="userSpaceOnUse" x="0" y="0" width="55" height="55">
<rect x="0.582031" y="0.5" width="54.418" height="54.4193" fill="#BA0203"/>
</mask>
<g mask="url(#mask0_1_657)">
<path d="M54.9975 36.0131L54.5215 19.2679C54.4768 17.6633 52.8658 16.227 51.1345 16.2543C50.2983 16.2676 47.5718 16.7225 47.5922 22.0216L47.6282 31.1161C47.629 31.4352 47.5986 31.7402 47.5359 32.0348C47.4258 31.8709 47.299 31.7166 47.1565 31.574C46.0012 30.4185 44.1072 30.4038 42.8448 31.5404C42.8161 31.5662 42.7893 31.594 42.7643 31.6233C41.29 33.3679 39.4824 34.8911 38.03 36.115C37.5232 36.542 37.0447 36.9452 36.6528 37.2985C35.0354 38.7567 34.8205 40.7759 34.8234 42.5585L34.8385 54.0708C34.8392 54.5396 35.2194 54.9193 35.6882 54.9193H44.9739C45.4432 54.9193 45.8236 54.5389 45.8236 54.0697V47.9319L53.1501 40.6053C54.4063 39.3453 55.0453 37.7577 54.9975 36.0131ZM51.9476 39.4044L44.373 46.979C44.2137 47.1384 44.1241 47.3544 44.1241 47.5798V53.2198H36.5365L36.5226 42.5557C36.52 41.0766 36.6718 39.5688 37.7904 38.5604C38.1611 38.2261 38.6077 37.8499 39.1248 37.4143C40.6129 36.1603 42.4618 34.6022 44.0204 32.7691C44.6181 32.2624 45.4414 32.262 45.9548 32.7755C46.2116 33.0323 46.3531 33.3762 46.3534 33.7438C46.3535 34.0033 46.2832 34.2509 46.1515 34.4647L45.924 34.7442L40.1128 40.5552C39.781 40.8871 39.781 41.425 40.1128 41.7568C40.2787 41.9229 40.4961 42.0058 40.7136 42.0058C40.931 42.0058 41.1485 41.9228 41.3143 41.7568L47.1564 35.9149C47.296 35.7752 47.9146 34.9906 47.9146 34.9906C48.8688 33.8141 49.3308 32.5453 49.3275 31.1107L49.2913 22.0148C49.2816 19.4902 49.9807 17.9719 51.1613 17.9532C51.9599 17.9414 52.8037 18.6277 52.823 19.3155L53.299 36.0605C53.334 37.345 52.8791 38.4704 51.9476 39.4044ZM18.9268 37.2983C18.534 36.9444 18.0542 36.5401 17.5463 36.1121C16.0948 34.8892 14.2883 33.3671 12.8149 31.626C12.7905 31.5971 12.764 31.5699 12.7359 31.5444C11.4731 30.403 9.57948 30.4165 8.42709 31.573C8.2835 31.716 8.15584 31.8711 8.04509 32.0357C7.98249 31.7412 7.95272 31.4362 7.95432 31.1172L7.98737 22.0214C8.00768 16.7237 5.28115 16.2689 4.44508 16.2556C2.71958 16.2272 1.1024 17.6654 1.05786 19.2705L0.584875 36.0124C0.53375 37.7574 1.17287 39.3458 2.43335 40.6062L9.75889 47.9319V54.0697C9.75889 54.5389 10.1393 54.9193 10.6086 54.9193H19.8913C20.3602 54.9193 20.7404 54.5396 20.741 54.0708L20.7561 42.5588C20.7591 40.7739 20.5439 38.7531 18.9268 37.2983ZM19.0427 53.2199H11.4582V47.5799C11.4582 47.3545 11.3686 47.1385 11.2093 46.9791L3.63484 39.4046C2.70045 38.4703 2.24575 37.3457 2.28337 36.0613L2.75636 19.3182C2.77539 18.6364 3.59891 17.9547 4.39597 17.9547C4.40331 17.9547 4.41075 17.9547 4.41798 17.9548C5.59853 17.9735 6.2977 19.4913 6.28803 22.015L6.25486 31.1101C6.24806 32.5442 6.71053 33.8139 7.66883 34.9919C7.66883 34.9919 8.28371 35.773 8.42497 35.914L8.42582 35.915L14.2649 41.7569C14.4308 41.923 14.6482 42.006 14.8658 42.006C15.0831 42.006 15.3005 41.9231 15.4664 41.7573C15.7982 41.4255 15.7983 40.8875 15.4666 40.5556L9.65803 34.744L9.42738 34.4606C9.29728 34.2483 9.22777 34.0023 9.22777 33.7444C9.22777 33.3765 9.36935 33.0328 9.62858 32.7746C10.1402 32.2613 10.9618 32.2631 11.5584 32.7718C13.1158 34.6016 14.9639 36.1585 16.4513 37.4117C16.9697 37.8484 17.4172 38.2256 17.7896 38.5611C18.9074 39.5667 19.0592 41.0753 19.0566 42.5561L19.0427 53.2199ZM37.289 29.6278C37.6106 29.7708 37.9865 29.7009 38.2351 29.4523L40.4225 27.2649C40.6713 27.0162 40.741 26.6401 40.598 26.3188L39.7257 24.3576L39.6569 24.2011C40.4722 22.8933 41.0581 21.4804 41.4033 19.9898L43.5639 19.1598C43.8923 19.0337 44.1092 18.7184 44.1092 18.3666V15.2753C44.1092 14.924 43.8929 14.6088 43.565 14.4825L41.4027 13.6497C41.0573 12.158 40.4716 10.7452 39.6575 9.4387L40.5983 7.31961C40.741 6.99841 40.6712 6.62246 40.4226 6.37396L38.2352 4.18653C37.9865 3.93781 37.6107 3.86809 37.2891 4.01105L35.1699 4.95362C33.8681 4.14072 32.4562 3.55538 30.961 3.2091L30.13 1.04516C30.004 0.716723 29.6886 0.5 29.3368 0.5H26.2456C25.8942 0.5 25.5791 0.716298 25.4528 1.0442L24.6774 3.05646L24.619 3.20952C23.1237 3.5556 21.7117 4.14051 20.4103 4.95309L18.2898 4.01083C17.9686 3.86809 17.5926 3.93803 17.3442 4.18653L15.1569 6.37396C14.9084 6.62246 14.8386 6.99841 14.9812 7.31951L15.8558 9.28915L15.9234 9.44018C15.1117 10.7402 14.526 12.1525 14.1774 13.6493L12.0145 14.4824C11.6866 14.6087 11.4703 14.9238 11.4703 15.2752V18.3664C11.4703 18.7183 11.6871 19.0336 12.0155 19.1597L14.0218 19.9297L14.1762 19.9897C14.5218 21.4834 15.1081 22.8965 15.9233 24.2016L14.9814 26.3187C14.8384 26.64 14.9083 27.0161 15.1569 27.2648L17.3442 29.4522C17.5927 29.7007 17.9689 29.7705 18.2898 29.6279L20.409 28.687C21.7154 29.5013 23.1281 30.0868 24.6199 30.4324L25.4528 32.5946C25.5791 32.9225 25.8942 33.1388 26.2456 33.1388H29.3368C29.6886 33.1388 30.004 32.922 30.13 32.5936L30.9001 30.5872L30.9599 30.4329C32.4526 30.0876 33.8663 29.5017 35.1736 28.687L37.289 29.6278ZM34.6246 27.0188C33.2643 27.9305 31.7658 28.5514 30.1705 28.8644C29.8848 28.9204 29.6477 29.119 29.5422 29.3903L28.7529 31.4395H26.8287L26.0416 29.3938C25.9369 29.1208 25.699 28.9206 25.4119 28.8644C23.8166 28.5515 22.3181 27.9304 20.958 27.0188C20.7161 26.8567 20.408 26.8297 20.1414 26.9475L18.1332 27.8382L16.7711 26.4761L17.6631 24.4743C17.7828 24.2068 17.7561 23.8965 17.5926 23.6532C16.6798 22.2956 16.058 20.7974 15.7447 19.2003C15.6887 18.9146 15.4901 18.6774 15.2188 18.5719L13.1696 17.7826V15.8583L15.2152 15.0713C15.4879 14.9667 15.6877 14.7294 15.7445 14.4429C16.0618 12.839 16.6836 11.3404 17.5926 9.98864C17.7561 9.74534 17.7828 9.43508 17.6631 9.16745L16.7709 7.16294L18.1332 5.80053L20.1379 6.69272C20.4056 6.81251 20.7159 6.78572 20.9589 6.62225C22.3123 5.7122 23.8104 5.09158 25.4119 4.7775C25.6995 4.72106 25.9377 4.52038 26.0422 4.24648L26.8287 2.19924H28.7529L29.5416 4.25009C29.6467 4.52208 29.8842 4.72116 30.1703 4.77739C31.7701 5.09179 33.2674 5.71241 34.6205 6.62225C34.8633 6.7853 35.1728 6.8124 35.44 6.69336L37.4463 5.80085L38.8085 7.16294L37.9178 9.17106C37.8002 9.43742 37.8271 9.74566 37.9892 9.98757C38.9008 11.3479 39.5217 12.8463 39.8347 14.4415C39.8909 14.7286 40.091 14.9665 40.3641 15.0713L42.4097 15.8583V17.7825L40.942 18.3458L40.3605 18.5718C40.089 18.6772 39.8906 18.9144 39.8345 19.2002C39.5222 20.7926 38.9012 22.2901 37.9891 23.6511C37.8273 23.8926 37.8002 24.2001 37.9171 24.4662L38.8081 26.476L37.4462 27.8379L35.441 26.9476C35.1746 26.8296 34.8664 26.8566 34.6246 27.0188ZM27.7913 7.82735C22.8321 7.82735 18.7976 11.8619 18.7976 16.8209C18.7976 21.7783 22.8321 25.8115 27.7913 25.8115C32.7487 25.8115 36.7818 21.7783 36.7818 16.8209C36.7818 11.8618 32.7487 7.82735 27.7913 7.82735ZM27.7913 24.1121C23.7692 24.1121 20.497 20.8413 20.497 16.8208C20.497 12.7987 23.7692 9.5266 27.7913 9.5266C31.8116 9.5266 35.0825 12.7988 35.0825 16.8208C35.0825 20.8413 31.8116 24.1121 27.7913 24.1121Z" fill="#BA0203"/>
</g>
</svg>
