<svg width="45" height="41" viewBox="0 0 45 41" fill="none" xmlns="http://www.w3.org/2000/svg">
<mask id="mask0_1_757" style="mask-type:alpha" maskUnits="userSpaceOnUse" x="0" y="0" width="45" height="41">
<rect x="0.701172" y="0.437988" width="43.4223" height="40.187" fill="white"/>
</mask>
<g mask="url(#mask0_1_757)">
<path d="M26.8256 31.3921C26.8968 31.4543 27.8779 31.227 28.0637 31.1907C31.8693 30.4497 35.8438 29.2963 39.6359 28.7077C44.4512 27.9601 45.6734 33.7491 41.8812 35.2419L22.3609 40.5165C20.4616 40.971 18.5155 39.904 16.8746 39.0456C15.1693 38.1533 13.5597 37.0401 11.7864 36.2742C10.678 35.7955 9.27828 35.2756 8.07825 35.5187C7.96959 36.4865 7.43737 37.3193 6.48882 37.6421C5.83266 37.8654 3.05054 37.8663 2.39229 37.6421C1.50367 37.3396 0.923878 36.5528 0.819649 35.6327C1.09328 31.3675 0.452632 26.6377 0.815802 22.4269C0.897995 21.4734 1.53946 20.5835 2.4732 20.3277C3.31065 20.0982 5.86869 20.0985 6.66486 20.42C7.47794 20.7484 7.80369 21.4397 8.10448 22.2059C10.2779 21.4486 13.0807 20.557 15.3283 21.4455C16.339 21.845 17.2113 22.8163 18.1587 23.4188C20.5945 24.9678 23.3061 26.2247 25.7323 27.8097C26.816 28.6833 27.2605 30.0523 26.8256 31.3921ZM3.15431 21.6222C2.60063 21.7023 2.29727 21.9387 2.21322 22.5155L2.23583 35.6129C2.30415 35.9913 2.59795 36.2872 2.97768 36.3562C3.45195 36.4422 5.34801 36.4459 5.83126 36.3712C6.2884 36.3006 6.62079 35.9172 6.66801 35.4606L6.66032 22.4356C6.63455 22.2681 6.48963 21.9686 6.36349 21.8588C5.95461 21.5028 3.73759 21.5378 3.15431 21.6222ZM8.06228 23.7417V34.1033C9.25135 33.8952 10.6305 34.3061 11.7509 34.7359C15.0813 36.0135 17.9013 38.6508 21.4534 39.2649C28.2486 37.4441 35.1275 35.7785 41.8302 33.7043C43.5193 32.405 42.5995 29.9304 40.4867 29.9927C35.4703 31.0874 30.4209 32.0462 25.4106 33.1668C24.1548 33.4476 23.7675 33.8359 22.4023 33.2449C20.3182 32.3427 18.1439 30.5469 16.0455 29.5584C15.2 29.1483 15.5473 28.0468 16.4407 28.1953L22.9808 31.9657C25.0299 32.8704 26.6404 30.2237 24.7766 28.8548C22.5625 27.2287 19.499 25.9794 17.1457 24.4338C16.2282 23.8312 15.422 22.865 14.3485 22.6021C13.3956 22.3687 12.4013 22.4986 11.448 22.6744C11.0091 22.7553 8.13631 23.4994 8.06228 23.7417Z" fill="white"/>
<path d="M33.9905 3.05342L36.369 4.01001C37.1583 3.2916 37.7429 2.38351 38.8984 3.07592C39.5166 3.4462 41.4749 5.40183 41.6801 6.05927C42.0654 7.29357 40.5092 7.88549 40.563 8.22464C40.9546 8.96963 41.3103 9.74762 41.4954 10.5729C42.3218 10.597 43.4207 10.3986 43.8617 11.3065C44.126 11.8505 44.1474 13.6574 44.1084 14.3017C44.0581 15.1349 43.9657 16.317 42.9287 16.4424C42.6185 16.4799 41.6825 16.3417 41.529 16.5266C41.4545 16.6164 41.1894 17.5157 41.0912 17.7491C40.9325 18.1265 40.7385 18.4843 40.5513 18.8464C41.1074 19.5022 41.9464 19.9842 41.6887 20.9718C41.5049 21.6766 39.1659 24.0716 38.456 24.2019C38.2176 24.2457 37.9638 24.242 37.7279 24.1846C37.2107 24.059 36.6729 23.0473 36.3156 23.098C35.8258 23.1674 34.6518 24.0423 33.9937 24.06C33.9647 24.8828 34.1755 26.0907 33.1732 26.4294C32.4899 26.6602 29.7671 26.6756 29.074 26.4729C27.9101 26.1327 28.1498 25.01 28.1223 24.06L25.732 23.0876C24.9644 23.594 24.6384 24.5207 23.5053 24.1827C23.0116 24.0354 21.0008 22.0035 20.6805 21.5044C20.2503 20.8339 20.2241 20.3717 20.7188 19.7216C20.9064 19.4751 21.5293 19.0587 21.4899 18.779C21.468 18.6234 21.1964 18.2166 21.1121 18.0114C20.905 17.507 20.7334 16.9921 20.5455 16.4806C19.7075 16.3323 18.7347 16.7402 18.2555 15.8021C17.8934 15.0931 17.8856 11.8699 18.3208 11.1982C18.8339 10.4065 19.8149 10.6042 20.6257 10.5782L21.5047 8.18057C20.9955 7.37239 20.0753 7.15227 20.4498 5.98628C20.6581 5.33736 22.6378 3.38884 23.2731 3.04397C24.4778 2.38992 24.9355 3.38989 25.8056 4.01258C26.5049 3.56092 27.3221 3.26724 28.1256 3.05342C28.1071 1.65134 27.9614 0.763177 29.5754 0.527321C30.3928 0.407819 32.3762 0.376107 33.1291 0.637029C34.1599 0.994369 33.9789 2.19638 33.9905 3.05342ZM32.5852 1.92532C31.5602 1.83811 30.5557 1.83811 29.5308 1.92532V3.71785C29.5308 3.74105 29.3432 4.07822 29.2947 4.11634C29.0269 4.32701 27.6586 4.64774 27.1773 4.85748C26.7927 5.02502 25.9573 5.58988 25.6455 5.60388C24.9793 5.63372 24.4694 4.54188 23.9135 4.29215C23.7921 4.31361 22.5398 5.53183 22.3723 5.72664C22.2376 5.88334 21.8188 6.33966 21.8603 6.49845C21.9542 6.85719 23.1779 7.51789 23.1565 8.08112C23.1447 8.39695 22.4152 9.54884 22.2452 9.97135C22.0517 10.4523 21.9094 11.3224 21.7034 11.6949C21.6638 11.7664 21.393 11.981 21.3711 11.981H19.4947C19.3759 12.992 19.3486 14.0328 19.4947 15.0414H21.1092C21.1323 15.0414 21.4976 15.199 21.5353 15.2265C21.8029 15.4214 22.158 16.9072 22.3595 17.3737C22.5115 17.7258 23.1055 18.6302 23.1451 18.8671C23.2623 19.5702 22.1006 20.1125 21.8479 20.6813C21.8479 20.9245 23.7869 22.8189 23.9904 22.8023C24.4543 22.5034 25.1134 21.3832 25.6948 21.4619C26.0215 21.5061 27.0063 22.1658 27.4378 22.3411C27.9306 22.5414 29.5308 22.7969 29.5308 23.3919V25.097C30.5055 25.2401 31.6106 25.2401 32.5852 25.097V23.3045C32.5852 23.1983 32.8441 22.9562 32.9596 22.8927C33.393 22.6542 34.2986 22.4899 34.8514 22.2523C35.2338 22.088 36.1301 21.5012 36.4212 21.4619C36.9991 21.3837 37.6688 22.5032 38.1258 22.8078C38.4982 22.6037 40.3031 20.8811 40.2558 20.6063C40.0134 20.2148 39.054 19.5782 38.971 19.1743C38.8892 18.7781 39.6739 17.5514 39.8709 17.0511C40.0701 16.5448 40.3026 15.0414 40.9195 15.0414H42.6213C42.7556 14.0244 42.7242 13.0004 42.6213 11.981H40.745C40.3558 11.981 39.9551 10.2114 39.7822 9.79775C39.6249 9.42187 38.9826 8.42715 38.9569 8.16868C38.8886 7.48571 40.3581 6.74806 40.2558 6.35854C40.2201 6.22284 39.1082 5.06676 38.9146 4.89596C38.8088 4.80269 38.2009 4.28166 38.1389 4.2925C37.7439 4.54573 37.1248 5.4888 36.711 5.58079C36.2 5.69458 35.4434 5.08005 34.9387 4.85737C34.3289 4.58852 33.4508 4.4612 32.9588 4.218C32.8433 4.16099 32.5852 3.90427 32.5852 3.80529V1.92532Z" fill="white"/>
<path d="M4.19923 23.0184C5.52448 22.7881 6.15183 24.6287 4.9827 25.2029C3.35188 26.0038 2.53227 23.3079 4.19923 23.0184Z" fill="white"/>
<path d="M30.2109 6.5854C37.8886 5.79971 41.0115 15.9534 34.5068 19.6337C29.4245 22.5092 23.2432 18.2278 24.1318 12.474C24.5971 9.46172 27.1517 6.89855 30.2109 6.5854ZM30.2966 7.98305C23.3433 8.77257 24.2006 19.6817 31.4928 19.1499C38.8083 18.6163 38.0275 7.10526 30.2966 7.98305Z" fill="white"/>
<path d="M33.4126 11.0613C33.9783 11.046 34.3427 11.666 33.9986 12.1298L30.6582 15.9517C30.3033 16.1563 30.1175 16.0832 29.7983 15.866C29.6063 15.7353 28.0852 14.2003 28.0263 14.0574C27.7927 13.4909 28.1665 12.9525 28.7812 13.032C29.2371 13.091 29.8822 14.0539 30.2726 14.3402L32.8882 11.2793C33.0108 11.1742 33.2529 11.0656 33.4126 11.0613Z" fill="white"/>
</g>
</svg>
