<svg width="16" height="17" viewBox="0 0 16 17" fill="none" xmlns="http://www.w3.org/2000/svg">
<mask id="mask0_1_839" style="mask-type:alpha" maskUnits="userSpaceOnUse" x="0" y="0" width="16" height="17">
<rect x="0.331787" y="0.750977" width="15.4195" height="15.4224" fill="white"/>
</mask>
<g mask="url(#mask0_1_839)">
<path d="M15.7121 5.28521C15.676 4.46577 15.5434 3.90241 15.3536 3.41423C15.1578 2.89606 14.8565 2.43215 14.4618 2.04646C14.0761 1.65484 13.6091 1.35049 13.0969 1.1577C12.606 0.967887 12.0455 0.835393 11.2261 0.799236C10.4005 0.760031 10.1384 0.750977 8.04453 0.750977C5.95063 0.750977 5.68854 0.760031 4.86605 0.796157C4.04658 0.832314 3.48322 0.964959 2.99517 1.15465C2.47687 1.35049 2.01296 1.65176 1.6273 2.04646C1.23562 2.43215 0.931392 2.89911 0.738506 3.41134C0.548698 3.90241 0.416173 4.46272 0.380046 5.28216C0.340841 6.10773 0.331787 6.36985 0.331787 8.46372C0.331787 10.5576 0.340841 10.8197 0.376968 11.6422C0.413125 12.4617 0.54574 13.025 0.735578 13.5132C0.931392 14.0314 1.23562 14.4953 1.6273 14.8809C2.01296 15.2726 2.47995 15.5769 2.99212 15.7697C3.48322 15.9595 4.04353 16.0921 4.86309 16.1282C5.68549 16.1644 5.94771 16.1734 8.0416 16.1734C10.1355 16.1734 10.3976 16.1644 11.2201 16.1282C12.0395 16.0921 12.6029 15.9595 13.091 15.7697C14.1274 15.369 14.9469 14.5496 15.3476 13.5132C15.5373 13.0221 15.67 12.4617 15.7061 11.6422C15.7422 10.8197 15.7513 10.5576 15.7513 8.46372C15.7513 6.36985 15.7482 6.10773 15.7121 5.28521ZM14.3233 11.582C14.2901 12.3351 14.1636 12.7419 14.0581 13.013C13.7989 13.6849 13.2657 14.2181 12.5939 14.4773C12.3227 14.5827 11.913 14.7092 11.1628 14.7423C10.3493 14.7786 10.1053 14.7875 8.04758 14.7875C5.98984 14.7875 5.74281 14.7786 4.9323 14.7423C4.1791 14.7092 3.77239 14.5827 3.50121 14.4773C3.16686 14.3537 2.86252 14.1579 2.61552 13.9018C2.35943 13.6517 2.16359 13.3504 2.04003 13.0161C1.93458 12.7449 1.80806 12.3351 1.77498 11.585C1.73873 10.7716 1.7298 10.5275 1.7298 8.46972C1.7298 6.41199 1.73873 6.16496 1.77498 5.35454C1.80806 4.60137 1.93458 4.19462 2.04003 3.92348C2.16359 3.58901 2.35943 3.28479 2.61857 3.03764C2.86853 2.78155 3.16982 2.58571 3.50429 2.4623C3.77543 2.35681 4.18523 2.2303 4.93535 2.19713C5.74881 2.16103 5.99289 2.15192 8.05053 2.15192C10.1114 2.15192 10.3553 2.16103 11.1658 2.19713C11.919 2.2303 12.3258 2.35681 12.5969 2.4623C12.9312 2.58571 13.2356 2.78155 13.4826 3.03764C13.7387 3.28775 13.9345 3.58901 14.0581 3.92348C14.1636 4.19462 14.2901 4.6043 14.3233 5.35454C14.3594 6.168 14.3684 6.41199 14.3684 8.46972C14.3684 10.5275 14.3594 10.7685 14.3233 11.582Z" fill="white"/>
<path d="M8.04451 4.50195C5.85732 4.50195 4.0827 6.27644 4.0827 8.46378C4.0827 10.6511 5.85732 12.4256 8.04451 12.4256C10.2319 12.4256 12.0063 10.6511 12.0063 8.46378C12.0063 6.27644 10.2319 4.50195 8.04451 4.50195ZM8.04451 11.0337C6.62555 11.0337 5.47459 9.88285 5.47459 8.46378C5.47459 7.04471 6.62555 5.89384 8.04451 5.89384C9.46361 5.89384 10.6145 7.04471 10.6145 8.46378C10.6145 9.88285 9.46361 11.0337 8.04451 11.0337Z" fill="white"/>
<path d="M13.088 4.34482C13.088 4.85558 12.6739 5.26972 12.163 5.26972C11.6522 5.26972 11.2381 4.85558 11.2381 4.34482C11.2381 3.83395 11.6522 3.41992 12.163 3.41992C12.6739 3.41992 13.088 3.83395 13.088 4.34482Z" fill="white"/>
</g>
</svg>
