<svg width="41" height="47" viewBox="0 0 41 47" fill="none" xmlns="http://www.w3.org/2000/svg">
<mask id="mask0_46_584" style="mask-type:alpha" maskUnits="userSpaceOnUse" x="0" y="0" width="41" height="47">
<rect x="0.564392" y="0.87207" width="39.8712" height="45.2556" fill="#BA0203"/>
</mask>
<g mask="url(#mask0_46_584)">
<path d="M21.0253 25.5706C20.9416 25.5524 20.8557 25.5492 20.7709 25.5618C19.9209 25.463 19.2797 24.7438 19.2783 23.8884C19.2783 23.4784 18.9459 23.1461 18.5359 23.1461C18.126 23.1461 17.7936 23.4784 17.7936 23.8884C17.7958 25.3169 18.7512 26.568 20.1286 26.9461V27.6885C20.1286 28.0984 20.461 28.4308 20.8709 28.4308C21.2809 28.4308 21.6133 28.0984 21.6133 27.6885V26.991C23.203 26.6583 24.2835 25.1776 24.1164 23.5621C23.9489 21.9467 22.5879 20.719 20.9637 20.7186C20.0328 20.7186 19.2783 19.964 19.2783 19.0332C19.2783 18.1024 20.0328 17.3477 20.9637 17.3477C21.8945 17.3477 22.6491 18.1024 22.6491 19.0332C22.6491 19.4431 22.9815 19.7755 23.3914 19.7755C23.8014 19.7755 24.1338 19.4431 24.1338 19.0332C24.1316 17.5333 23.0809 16.2397 21.6133 15.9302V15.2545C21.6133 14.8446 21.2809 14.5122 20.8709 14.5122C20.461 14.5122 20.1286 14.8446 20.1286 15.2545V15.9754C18.5968 16.3937 17.6109 17.8809 17.8218 19.4547C18.0329 21.0285 19.3758 22.2032 20.9637 22.2029C21.8822 22.2029 22.6314 22.9384 22.6481 23.8565C22.6651 24.7746 21.9431 25.5372 21.0253 25.5706Z" fill="#BA0203"/>
<path d="M10.1993 21.518C10.1993 27.4631 15.0186 32.2824 20.9637 32.2824C26.9088 32.2824 31.7281 27.4631 31.7281 21.518C31.7281 15.573 26.9088 10.7537 20.9637 10.7537C15.0215 10.7602 10.2062 15.5758 10.1993 21.518ZM20.9637 12.2383C26.0889 12.2383 30.2434 16.3928 30.2434 21.518C30.2434 26.6432 26.0889 30.7978 20.9637 30.7978C15.8385 30.7978 11.684 26.6432 11.684 21.518C11.6897 16.3954 15.841 12.244 20.9637 12.2383Z" fill="#BA0203"/>
<path d="M35.3875 34.1124L29.5725 36.8598C28.7697 35.3664 27.2296 34.4161 25.5347 34.3682L20.1667 34.2207C19.3167 34.1965 18.4826 33.9812 17.7269 33.5908L17.1806 33.3077C14.3839 31.8499 11.0503 31.8535 8.25646 33.3171L8.29056 32.0797C8.30181 31.6697 7.97888 31.3283 7.56889 31.317L1.6825 31.1551C1.2726 31.1438 0.931461 31.4667 0.920217 31.8767L0.564677 44.7941C0.553433 45.2041 0.876355 45.5455 1.28635 45.5568L7.17274 45.7187H7.193C7.59537 45.7187 7.92443 45.3987 7.9353 44.9968L7.9524 44.3787L9.48161 43.5599C10.0818 43.237 10.7836 43.1602 11.4393 43.3457L20.5712 45.9087C20.5871 45.9134 20.6031 45.9171 20.6193 45.9207C21.2794 46.0588 21.9521 46.128 22.6263 46.1276C24.0544 46.1284 25.4659 45.8206 26.7638 45.2247C26.7957 45.2102 26.8265 45.1932 26.8559 45.174L40.0962 36.6097C40.4261 36.3963 40.5326 35.9631 40.3394 35.621C39.3564 33.8767 37.1763 33.2124 35.3875 34.1124ZM2.06926 44.0932L2.38392 32.6596L6.78598 32.7807L6.47132 44.2145L2.06926 44.0932ZM26.0951 43.8988C24.4825 44.6267 22.6814 44.8275 20.9481 44.4733L11.8409 41.9169C10.8159 41.6273 9.71867 41.7473 8.78094 42.2514L7.99951 42.6701L8.2086 35.0682C10.685 33.4212 13.8609 33.2519 16.4982 34.626L17.0444 34.909C17.9991 35.402 19.0521 35.6739 20.1261 35.705L25.4945 35.8526C27.0023 35.896 28.2829 36.9696 28.5888 38.4471L20.5926 38.2263C20.1826 38.215 19.8415 38.5384 19.8299 38.9479C19.8187 39.358 20.142 39.6994 20.5516 39.7106L29.3761 39.9534H29.3968C29.7987 39.953 30.1275 39.633 30.1383 39.2314C30.1474 38.9088 30.1235 38.5859 30.0666 38.2684L36.0309 35.4502C36.0367 35.4476 36.0425 35.4448 36.0482 35.4419C36.8942 35.0138 37.9171 35.157 38.613 35.8011L26.0951 43.8988Z" fill="#BA0203"/>
<path d="M21.706 8.66644V1.61437C21.706 1.20447 21.3736 0.87207 20.9637 0.87207C20.5537 0.87207 20.2214 1.20447 20.2214 1.61437V8.66644C20.2214 9.07635 20.5537 9.40875 20.9637 9.40875C21.3736 9.40875 21.706 9.07635 21.706 8.66644Z" fill="#BA0203"/>
<path d="M27.2734 8.6665V5.32604C27.2734 4.91614 26.9409 4.58374 26.531 4.58374C26.1211 4.58374 25.7888 4.91614 25.7888 5.32604V8.6665C25.7888 9.0764 26.1211 9.40881 26.531 9.40881C26.9409 9.40881 27.2734 9.0764 27.2734 8.6665Z" fill="#BA0203"/>
<path d="M16.1387 8.6665V5.32604C16.1387 4.91614 15.8063 4.58374 15.3963 4.58374C14.9864 4.58374 14.6541 4.91614 14.6541 5.32604V8.6665C14.6541 9.0764 14.9864 9.40881 15.3963 9.40881C15.8063 9.40881 16.1387 9.0764 16.1387 8.6665Z" fill="#BA0203"/>
</g>
</svg>
