<svg width="15" height="22" viewBox="0 0 15 22" fill="none" xmlns="http://www.w3.org/2000/svg">
<mask id="mask0_1_800" style="mask-type:alpha" maskUnits="userSpaceOnUse" x="0" y="0" width="15" height="22">
<rect width="14.7318" height="21.9181" fill="white"/>
</mask>
<g mask="url(#mask0_1_800)">
<path d="M7.36588 0C3.29779 0 0 3.29779 0 7.36595C0 11.434 7.36588 21.9181 7.36588 21.9181C7.36588 21.9181 14.7318 11.434 14.7318 7.36595C14.7318 3.29779 11.4339 0 7.36588 0ZM7.36588 12.1496C4.42627 12.1496 2.04326 9.76654 2.04326 6.82693C2.04326 3.88739 4.42627 1.50431 7.36588 1.50431C10.3054 1.50431 12.6885 3.88739 12.6885 6.82693C12.6885 9.76654 10.3054 12.1496 7.36588 12.1496Z" fill="white"/>
</g>
<circle cx="7.36341" cy="7.06227" r="5.81324" fill="#BA0303"/>
<path d="M10.4347 4.33789L7.35272 6.48584L4.29211 4.33789H5.99979L7.35315 5.36056L8.72702 4.33789H10.4347Z" fill="white"/>
<path d="M4.57982 9.78597H3.604V5.1748L3.65269 5.1949L4.57982 5.88086V9.78597Z" fill="white"/>
<path d="M10.1594 5.81884L11.1042 5.12543C11.1424 5.12212 11.1102 5.13898 11.1102 5.14404V9.78645H10.1594V5.81884Z" fill="white"/>
<path d="M8.90834 9.78621H7.94503C7.94213 9.68852 7.94878 9.5898 7.94558 9.49203C7.92757 8.94901 7.92992 8.39959 7.91951 7.85604C7.91738 7.74448 7.91982 7.63218 7.9226 7.52068C8.2397 7.24433 8.58474 6.99528 8.90834 6.72461V9.78621Z" fill="white"/>
<path d="M6.80664 9.78598H5.83081V6.81185C5.8537 6.8088 5.86713 6.82791 5.88452 6.83942C6.03174 6.93651 6.19128 7.05848 6.33514 7.16407C6.49347 7.28026 6.65009 7.39935 6.80664 7.51789V9.78598Z" fill="white"/>
</svg>
