<svg width="46" height="47" viewBox="0 0 46 47" fill="none" xmlns="http://www.w3.org/2000/svg">
<mask id="mask0_46_577" style="mask-type:alpha" maskUnits="userSpaceOnUse" x="-1" y="0" width="47" height="47">
<rect x="-0.00942993" y="0.502686" width="45.9705" height="45.9944" fill="#BA0203"/>
</mask>
<g mask="url(#mask0_46_577)">
<path d="M5.84381 14.3687L9.67356 17.432C9.42005 18.4168 9.26141 19.4236 9.1996 20.4387L4.61319 22.1674C4.31593 22.2794 4.12746 22.5734 4.14974 22.8903C4.23499 24.0941 4.42346 25.2885 4.71308 26.4601C4.78666 26.7577 5.04097 26.9759 5.34631 27.0034C7.62744 27.2075 10.7207 27.5889 10.7645 27.5982C11.0022 27.6483 11.2491 27.5749 11.4209 27.4031L15.5873 23.2368C15.7452 23.0788 15.8207 22.8564 15.7916 22.6349C15.1147 17.5188 18.7133 12.8227 23.8294 12.1458C28.9455 11.4689 33.6416 15.0676 34.3185 20.1836C34.9954 25.2997 31.3968 29.9958 26.2807 30.6727C25.4672 30.7803 24.643 30.7803 23.8295 30.6727C23.608 30.6436 23.3856 30.7191 23.2276 30.877L19.0613 35.0434C18.8895 35.2152 18.8161 35.4622 18.8662 35.6999C18.8752 35.7436 19.2569 38.8369 19.461 41.118C19.4883 41.4235 19.7066 41.678 20.0043 41.7516C21.1758 42.0411 22.3702 42.2294 23.5739 42.3145C23.8909 42.3368 24.1848 42.1484 24.2969 41.8511L26.0257 37.2647C27.0409 37.203 28.0477 37.0443 29.0326 36.7907L32.0959 40.6205C32.2945 40.8683 32.632 40.9565 32.9265 40.8376C34.0449 40.3848 35.122 39.8357 36.1456 39.1967C36.4149 39.0285 36.5418 38.7035 36.4579 38.3972L35.1599 33.6677C35.551 33.3443 35.9288 33.001 36.2873 32.6425C36.6459 32.2841 36.9893 31.9059 37.3125 31.515L42.042 32.813C42.3483 32.897 42.6733 32.7701 42.8415 32.5008C43.4806 31.4771 44.0297 30.3999 44.4826 29.2814C44.6016 28.9868 44.5132 28.6491 44.2653 28.4505L40.4356 25.3872C40.6891 24.4023 40.8478 23.3955 40.9095 22.3804L45.4959 20.6516C45.7932 20.5394 45.9817 20.2455 45.9593 19.9286C45.8741 18.7247 45.6858 17.5305 45.3965 16.3589C45.32 16.0501 45.0495 15.8282 44.7317 15.8136L39.8377 15.5868C39.4651 14.6398 39.0017 13.7309 38.4543 12.8729L41.1467 8.78141C41.3216 8.51568 41.3009 8.1665 41.0959 7.92324C40.7025 7.45611 40.2913 7.00784 39.8742 6.59039C39.4571 6.17293 39.0084 5.76177 38.5413 5.36866C38.2981 5.16375 37.949 5.14309 37.6833 5.31799L33.5916 8.01028C32.7337 7.46284 31.8249 6.99948 30.8778 6.62686L30.6511 1.73223C30.6365 1.41431 30.4146 1.14382 30.1057 1.06746C28.934 0.777933 27.7397 0.589553 26.5357 0.504482C26.2188 0.482113 25.9248 0.670493 25.8127 0.967839L24.0839 5.55425C23.0688 5.61597 22.062 5.7747 21.0771 6.02821L18.0138 2.19846C17.8154 1.95034 17.4775 1.86195 17.183 1.98115C16.0644 2.43409 14.9872 2.98315 13.9635 3.62222C13.6942 3.79048 13.5673 4.11549 13.6513 4.42173L14.9493 9.15125C14.5581 9.47465 14.1802 9.81808 13.8219 10.1764C13.4635 10.5348 13.1198 10.9131 12.7966 11.3039L8.06726 10.0061C7.76102 9.92211 7.43601 10.049 7.26775 10.3184C6.62859 11.3419 6.07953 12.419 5.6265 13.5374C5.50747 13.8321 5.59578 14.1699 5.84381 14.3687ZM12.8719 12.8152C13.1522 12.8922 13.4515 12.7926 13.6298 12.5629C14.3782 11.5993 15.2444 10.7331 16.208 9.98472C16.4376 9.8064 16.5372 9.50726 16.4603 9.22689L15.1812 4.5651C15.8432 4.17676 16.5275 3.82785 17.2307 3.52035L20.2498 7.29503C20.4314 7.52231 20.7321 7.61762 21.0115 7.5366C22.1827 7.19667 23.3921 7.00595 24.6111 6.96885C24.902 6.95996 25.1589 6.77643 25.2616 6.50397L26.9658 1.98304C27.7302 2.05805 28.4897 2.17771 29.2401 2.34156L29.4636 7.16559C29.4771 7.45655 29.6649 7.7106 29.9391 7.80888C31.0873 8.22049 32.1783 8.77665 33.1858 9.46405C33.4264 9.62826 33.7425 9.63096 33.9858 9.47079L38.0193 6.81685C38.594 7.32675 39.1376 7.8705 39.6473 8.44534L36.9933 12.4788C36.8332 12.7223 36.8359 13.0383 37.0001 13.279C37.6875 14.2865 38.2437 15.3774 38.6553 16.5255C38.7535 16.7998 39.0076 16.9875 39.2985 17.001L44.1226 17.2245C44.2863 17.9749 44.4061 18.7342 44.4811 19.4986L39.9602 21.2027C39.6877 21.3054 39.5042 21.5623 39.4953 21.8533C39.4584 23.0724 39.2676 24.2819 38.9278 25.4532C38.8467 25.7325 38.9419 26.0333 39.1691 26.2149L42.9438 29.2339C42.6363 29.9371 42.2874 30.6215 41.899 31.2835L37.2378 30.0038C36.9574 29.9268 36.6582 30.0263 36.4799 30.256C35.7315 31.2197 34.8653 32.0858 33.9017 32.8342C33.672 33.0126 33.5724 33.3118 33.6494 33.5922L34.9287 38.2536C34.2667 38.6419 33.5824 38.9907 32.8792 39.2983L29.8602 35.5237C29.6785 35.2965 29.3778 35.2012 29.0985 35.2824C27.9271 35.6222 26.7175 35.8128 25.4984 35.8499C25.2075 35.8588 24.9506 36.0423 24.8479 36.3147L23.1438 40.8356C22.3713 40.7598 21.604 40.6384 20.8458 40.4718C20.7976 39.9476 20.3797 35.9403 20.3557 35.7817L23.9988 32.1386C29.9247 32.7218 35.2012 28.3907 35.7844 22.4648C36.3676 16.539 32.0365 11.2625 26.1106 10.6793C20.1848 10.0961 14.9083 14.4272 14.3251 20.353C14.2559 21.0555 14.256 21.7632 14.3252 22.4657L10.682 26.109C10.5235 26.0849 6.51612 25.667 5.99194 25.6188C5.82539 24.8606 5.70394 24.0932 5.62803 23.3208L10.149 21.6166C10.4215 21.514 10.605 21.257 10.6139 20.9661C10.6509 19.7469 10.8416 18.5374 11.1814 17.3661C11.2625 17.0868 11.1673 16.7861 10.9402 16.6044L7.16552 13.5854C7.47302 12.8822 7.82184 12.1978 8.21019 11.5359L12.8719 12.8152ZM27.5576 15.1629C27.4952 14.9174 27.3082 14.7229 27.0654 14.6508C23.3327 13.5412 19.4073 15.6676 18.2977 19.4003C17.9739 20.4895 17.9181 21.6408 18.1352 22.7562L1.16891 39.7219C-0.352231 41.2431 -0.408017 43.7292 1.04458 45.2638C1.07036 45.2907 1.09623 45.3177 1.12255 45.3438C2.66175 46.8819 5.15632 46.8815 6.69497 45.3428L23.7083 28.3294C27.5306 29.0733 31.2323 26.5778 31.9762 22.7555C32.1933 21.6401 32.1375 20.4886 31.8137 19.3993C31.7007 19.0188 31.3008 18.8018 30.9203 18.9147C30.8056 18.9488 30.7012 19.0109 30.6166 19.0955L26.972 22.7399L24.4107 22.0536L23.7244 19.4923L27.3689 15.8478C27.5481 15.6687 27.6198 15.4085 27.5576 15.1629ZM23.1297 22.8261C23.1963 23.0741 23.39 23.2678 23.6379 23.3343L27.0006 24.2356C27.2485 24.3021 27.5132 24.2312 27.6947 24.0497L30.6592 21.0852C30.8378 24.1802 28.4736 26.8339 25.3786 27.0124C24.8551 27.0427 24.3301 26.9994 23.8186 26.8839C23.4658 26.8026 23.0958 26.9089 22.8399 27.1651L5.67861 44.3265C4.70086 45.3042 3.11559 45.3042 2.13776 44.3264C2.12114 44.3097 2.1047 44.2928 2.08844 44.2756C1.16585 43.3011 1.20933 41.7142 2.18528 40.7383L19.2991 23.6246C19.5551 23.3686 19.6614 22.9988 19.5802 22.6459C18.8971 19.622 20.7949 16.6169 23.8188 15.9338C24.3302 15.8183 24.8554 15.775 25.3789 15.8052L22.4144 18.7696C22.2328 18.9512 22.1618 19.2159 22.2283 19.4639L23.1297 22.8261Z" fill="#BA0203"/>
</g>
</svg>
