<svg width="43" height="35" viewBox="0 0 43 35" fill="none" xmlns="http://www.w3.org/2000/svg">
<mask id="mask0_1_749" style="mask-type:alpha" maskUnits="userSpaceOnUse" x="0" y="0" width="43" height="36">
<rect x="0.500061" y="0.872559" width="41.9999" height="34.1308" fill="#D9D9D9"/>
</mask>
<g mask="url(#mask0_1_749)">
<path d="M13.1384 22.365C11.158 20.3845 7.93561 20.3845 5.9553 22.365C3.9749 24.3454 3.9749 27.5677 5.9553 29.5481C6.94549 30.5383 8.24618 31.0335 9.54687 31.0335C10.8475 31.0335 12.1482 30.5383 13.1384 29.5481C15.1188 27.5677 15.1188 24.3454 13.1384 22.365ZM6.82532 28.6781C5.32473 27.1774 5.32473 24.7357 6.82532 23.235C7.57566 22.4847 8.56126 22.1095 9.54687 22.1095C10.5325 22.1095 11.5181 22.4847 12.2684 23.235C13.769 24.7357 13.769 27.1774 12.2684 28.6781C10.7677 30.1788 8.326 30.1788 6.82532 28.6781Z" fill="white"/>
<path d="M11.7296 23.7738C10.5261 22.5702 8.56756 22.5702 7.36401 23.7738C6.16044 24.9774 6.16044 26.9358 7.36401 28.1394C7.96579 28.7412 8.75631 29.0421 9.54676 29.0421C10.3372 29.0421 11.1278 28.7412 11.7295 28.1394C12.9332 26.9358 12.9332 24.9774 11.7296 23.7738ZM10.8596 27.2694C10.1358 27.9931 8.95795 27.9931 8.2341 27.2694C7.51026 26.5455 7.51026 25.3677 8.2341 24.6439C8.59603 24.2819 9.07148 24.101 9.54685 24.101C10.0222 24.101 10.4977 24.2819 10.8596 24.6439C11.5833 25.3677 11.5833 26.5455 10.8596 27.2694Z" fill="white"/>
<path d="M38.9394 27.2574C39.2493 27.1182 39.3878 26.7539 39.2486 26.444C38.6014 25.0037 37.1633 24.073 35.5846 24.073C33.3707 24.073 31.5697 25.8742 31.5697 28.088C31.5697 30.3019 33.3707 32.103 35.5846 32.103C37.11 32.103 38.4845 31.2564 39.1717 29.8935C39.3246 29.5901 39.2026 29.2202 38.8993 29.0672C38.5959 28.9142 38.2259 29.0361 38.0729 29.3396C37.5962 30.2852 36.6427 30.8726 35.5847 30.8726C34.0493 30.8726 32.8002 29.6234 32.8002 28.088C32.8002 26.5526 34.0494 25.3035 35.5847 25.3035C36.6798 25.3035 37.6774 25.9491 38.1262 26.9483C38.2654 27.2582 38.6292 27.3965 38.9394 27.2574Z" fill="white"/>
<path d="M35.5845 25.9412C34.4007 25.9412 33.4377 26.9042 33.4377 28.088C33.4377 29.2718 34.4007 30.2348 35.5845 30.2348C36.7684 30.2348 37.7314 29.2718 37.7314 28.088C37.7314 26.9042 36.7684 25.9412 35.5845 25.9412ZM35.5845 29.0044C35.0793 29.0044 34.6682 28.5934 34.6682 28.0881C34.6682 27.5828 35.0793 27.1717 35.5845 27.1717C36.0898 27.1717 36.5009 27.5828 36.5009 28.0881C36.5009 28.5934 36.0898 29.0044 35.5845 29.0044Z" fill="white"/>
<path d="M41.8848 33.7729H39.5155C41.3171 32.5234 42.5 30.4417 42.5 28.0879C42.5 26.0372 41.6018 24.193 40.1792 22.9255V16.5465C40.1792 15.6487 39.5033 14.8729 38.607 14.7421C38.5997 14.7411 38.5925 14.7402 38.5852 14.7393L34.7492 14.318V13.2622C34.7492 12.9224 34.4738 12.647 34.134 12.647C33.7941 12.647 33.5187 12.9224 33.5187 13.2622V14.1829L31.8203 13.9964V9.17501C31.8203 9.06197 31.9122 8.96993 32.0254 8.96993H33.3137C33.4268 8.96993 33.5187 9.06197 33.5187 9.17501V10.3091C33.5187 10.6489 33.7941 10.9243 34.134 10.9243C34.4738 10.9243 34.7492 10.6489 34.7492 10.3091V9.17501C34.7492 8.39342 34.121 7.75694 33.3432 7.74094V4.12928L34.1131 3.55178C34.3849 3.34793 34.44 2.96222 34.2362 2.69045C34.0322 2.41852 33.6465 2.36356 33.3748 2.5674L32.3588 3.32947C32.2039 3.44571 32.1127 3.62807 32.1127 3.82166V7.73946H32.0254C31.2338 7.73946 30.5898 8.38349 30.5898 9.17501V13.8612L24.1025 13.1487L21.4255 4.39637H21.4908C22.2824 4.39637 22.9264 3.75234 22.9264 2.96082V2.3081C22.9264 1.51658 22.2824 0.872559 21.4908 0.872559H4.45027C3.65875 0.872559 3.01472 1.51658 3.01472 2.3081V2.96082C3.01472 3.75234 3.65875 4.39637 4.45027 4.39637H4.64181V16.0536C3.65883 16.5251 2.7414 17.1429 1.91936 17.8975C1.7092 18.0904 1.58525 18.365 1.5791 18.6511C1.57295 18.9389 1.68615 19.2208 1.88975 19.4243L2.58742 20.122L2.16316 20.5462C1.75112 20.9583 1.73077 21.616 2.10221 22.0523C1.86727 22.5 1.67237 22.9705 1.52209 23.4533C0.950904 23.499 0.500061 23.9786 0.500061 24.5614V27.3519C0.500061 27.9346 0.950822 28.4141 1.52217 28.4599C1.67245 28.9428 1.86727 29.4132 2.10229 29.861C1.73086 30.2973 1.7512 30.955 2.16324 31.3671L4.13642 33.3402C4.54846 33.7522 5.20619 33.7726 5.64251 33.4012C5.90706 33.5401 6.18031 33.663 6.45864 33.7729H1.11529C0.775521 33.7729 0.500061 34.0484 0.500061 34.3882C0.500061 34.7279 0.775521 35.0034 1.11529 35.0034H41.8848C42.2246 35.0034 42.5 34.7279 42.5 34.3882C42.5 34.0484 42.2246 33.7729 41.8848 33.7729ZM24.248 14.4025L38.4382 15.9611C38.73 16.0081 38.9488 16.2582 38.9488 16.5466V18.8152H25.7497C24.9216 18.8152 24.248 18.1416 24.248 17.3135V14.4025ZM22.8012 13.1008H15.457C15.1173 13.1008 14.8418 13.3762 14.8418 13.716C14.8418 14.0558 15.1173 14.3312 15.457 14.3312H23.0175V17.3135C23.0175 18.82 24.2431 20.0457 25.7497 20.0457H38.9488V22.0491C37.9523 21.4917 36.8052 21.1725 35.5845 21.1725C31.7717 21.1725 28.6698 24.2741 28.6691 28.0869H20.4722C20.7555 26.4804 20.6869 24.8206 20.2655 23.242C19.7617 21.3542 18.7613 19.6223 17.3722 18.2332C15.3214 16.1824 12.5955 15.0209 9.69673 14.9625C8.37866 14.9365 7.08814 15.1394 5.87228 15.5519V14.3311H12.5586C12.8984 14.3311 13.1739 14.0556 13.1739 13.7158C13.1739 13.3761 12.8984 13.1006 12.5586 13.1006H11.1578V4.39637H20.1388L22.8012 13.1008ZM5.87236 4.39637H9.9274V13.1008H5.87236V4.39637ZM4.45027 3.1659C4.33723 3.1659 4.24519 3.07386 4.24519 2.96082V2.3081C4.24519 2.19506 4.33723 2.10303 4.45027 2.10303H21.4908C21.6039 2.10303 21.6959 2.19506 21.6959 2.3081V2.96082C21.6959 3.07386 21.6039 3.1659 21.4908 3.1659H4.45027ZM9.67204 16.1929C12.2515 16.2448 14.6773 17.2784 16.5022 19.1034C17.7384 20.3396 18.6287 21.8805 19.0767 23.5593C19.4706 25.035 19.5191 26.5905 19.2213 28.087H18.314C18.4875 27.8908 18.5936 27.6337 18.5936 27.3519V24.5614C18.5936 23.9787 18.1428 23.4992 17.5715 23.4533C17.4212 22.9706 17.2264 22.5 16.9913 22.0523C17.3628 21.616 17.3424 20.9583 16.9304 20.5462L14.9572 18.5731C14.5451 18.161 13.8874 18.1407 13.4511 18.5121C13.0035 18.2772 12.533 18.0823 12.0501 17.932C12.0043 17.3607 11.5248 16.9099 10.942 16.9099H8.15159C7.56885 16.9099 7.08937 17.3606 7.04352 17.932C6.56068 18.0823 6.09023 18.2771 5.64251 18.5121C5.20627 18.1408 4.54862 18.1609 4.13642 18.5731L3.45761 19.2519L2.88733 18.6816C4.75903 17.0248 7.16074 16.1431 9.67204 16.1929ZM10.8295 33.7729H8.26422C8.21771 33.3301 7.91297 32.9581 7.47664 32.827C7.01866 32.6895 6.57299 32.5049 6.15192 32.2785C5.75095 32.0628 5.27263 32.1104 4.92679 32.3905L3.11283 30.5765C3.39305 30.2307 3.44055 29.7524 3.22489 29.3515C2.99848 28.9303 2.81391 28.4846 2.67635 28.0267C2.54526 27.5904 2.17341 27.2857 1.73045 27.2392V24.6739C2.17333 24.6274 2.54526 24.3226 2.67626 23.8863C2.81383 23.4283 2.9984 22.9826 3.22489 22.5616C3.44055 22.1605 3.39297 21.6824 3.11283 21.3365L4.92679 19.5226C5.27271 19.8028 5.75095 19.8502 6.15184 19.6346C6.57299 19.4082 7.01866 19.2237 7.47664 19.0861C7.91288 18.955 8.21763 18.5832 8.26414 18.1402H10.8294C10.8759 18.5831 11.1807 18.955 11.617 19.086C12.075 19.2236 12.5207 19.4081 12.9417 19.6346C13.3427 19.8503 13.8208 19.8027 14.1668 19.5226L15.9807 21.3365C15.7006 21.6825 15.6531 22.1607 15.8687 22.5616C16.0951 22.9826 16.2796 23.4284 16.4172 23.8863C16.5483 24.3226 16.9201 24.6273 17.3631 24.6739V27.2392C16.9202 27.2857 16.5483 27.5904 16.4172 28.0267C16.2796 28.4847 16.0951 28.9304 15.8687 29.3515C15.6531 29.7524 15.7006 30.2306 15.9807 30.5765L14.1668 32.3905C13.8209 32.1104 13.3427 32.0628 12.9417 32.2784C12.5207 32.5048 12.0749 32.6894 11.617 32.827C11.1808 32.9581 10.876 33.33 10.8295 33.7729ZM12.6351 33.7729C12.9134 33.663 13.1867 33.5401 13.4512 33.4012C13.8875 33.7727 14.5453 33.7523 14.9573 33.3402L16.9305 31.3671C17.3425 30.955 17.3629 30.2972 16.9914 29.861C17.0846 29.6834 17.1696 29.5014 17.2499 29.3174H28.7809C29.1125 31.1574 30.1733 32.7462 31.6537 33.7729H12.6351ZM29.8997 28.0879C29.8997 24.9532 32.4499 22.4029 35.5846 22.4029C38.7193 22.4029 41.2696 24.9532 41.2696 28.0879C41.2696 31.2226 38.7193 33.7729 35.5846 33.7729C32.4499 33.7729 29.8997 31.2227 29.8997 28.0879Z" fill="white"/>
<path d="M22.7014 27.0446C23.0412 27.0446 23.3167 26.7691 23.3167 26.4293V23.3811C23.3167 23.0414 23.0412 22.7659 22.7014 22.7659C22.3615 22.7659 22.0862 23.0414 22.0862 23.3811V26.4293C22.0862 26.7691 22.3615 27.0446 22.7014 27.0446Z" fill="white"/>
<path d="M24.8605 27.0446C25.2003 27.0446 25.4757 26.7691 25.4757 26.4293V23.3811C25.4757 23.0414 25.2003 22.7659 24.8605 22.7659C24.5206 22.7659 24.2453 23.0414 24.2453 23.3811V26.4293C24.2453 26.7691 24.5206 27.0446 24.8605 27.0446Z" fill="white"/>
<path d="M27.0196 27.0446C27.3595 27.0446 27.6349 26.7691 27.6349 26.4293V23.3811C27.6349 23.0414 27.3595 22.7659 27.0196 22.7659C26.6798 22.7659 26.4044 23.0414 26.4044 23.3811V26.4293C26.4044 26.7691 26.6799 27.0446 27.0196 27.0446Z" fill="white"/>
</g>
</svg>
