<svg width="55" height="35" viewBox="0 0 55 35" fill="none" xmlns="http://www.w3.org/2000/svg">
<mask id="mask0_1_651" style="mask-type:alpha" maskUnits="userSpaceOnUse" x="0" y="0" width="55" height="35">
<rect y="0.5" width="54.3125" height="34.3562" fill="#BA0203"/>
</mask>
<g mask="url(#mask0_1_651)">
<path d="M50.5105 15.0648L49.104 9.43888C49.4885 9.3572 49.7771 9.01605 49.7771 8.60732V7.70024C49.7771 5.73077 48.1748 4.12855 46.2054 4.12855H39.799V2.25752C39.799 1.28838 39.0107 0.5 38.0415 0.5H5.38586C4.41672 0.5 3.62834 1.28838 3.62834 2.25752V17.6783C3.62834 18.1479 4.00906 18.5287 4.47877 18.5287C4.94839 18.5287 5.32921 18.148 5.32921 17.6783V2.25752C5.32921 2.22623 5.35457 2.20088 5.38586 2.20088H38.0414C38.0727 2.20088 38.0981 2.22623 38.0981 2.25752V17.6785C38.0981 18.1481 38.4788 18.5289 38.9485 18.5289C39.4181 18.5289 39.7989 18.1482 39.7989 17.6785V16.7144H49.8308L49.833 16.7146L49.8353 16.7145C51.0698 16.7154 52.1179 17.5256 52.478 18.6421H49.8336C49.364 18.6421 48.9832 19.0228 48.9832 19.4925V21.3067C48.9832 22.776 50.1785 23.9713 51.6478 23.9713H52.6116V27.7131H50.388C49.6575 25.6039 47.6525 24.0846 45.2981 24.0846C42.9437 24.0846 40.9386 25.6039 40.2082 27.7131H39.7987V21.3066C39.7987 20.837 39.418 20.4562 38.9483 20.4562C38.4787 20.4562 38.0979 20.8369 38.0979 21.3066V27.7128H20.4539C19.7234 25.6037 17.7184 24.0844 15.364 24.0844C13.0096 24.0844 11.0045 25.6037 10.2741 27.7128H5.38586C5.35457 27.7128 5.32921 27.6875 5.32921 27.6562V25.7853H9.0143C9.48391 25.7853 9.86474 25.4046 9.86474 24.9348C9.86474 24.4651 9.48402 24.0844 9.0143 24.0844H0.850438C0.380825 24.0844 0 24.4651 0 24.9348C0 25.4046 0.380719 25.7853 0.850438 25.7853H3.62844V27.6562C3.62844 28.6253 4.41682 29.4137 5.38596 29.4137H9.97962C9.97941 29.4326 9.97814 29.4514 9.97814 29.4704C9.97814 32.4402 12.3943 34.8562 15.364 34.8562C18.3337 34.8562 20.7499 32.4402 20.7499 29.4704C20.7499 29.4513 20.7486 29.4326 20.7484 29.4137H39.9137C39.9135 29.4326 39.9122 29.4514 39.9122 29.4704C39.9122 32.4402 42.3284 34.8562 45.2981 34.8562C48.2678 34.8562 50.6839 32.4402 50.6839 29.4704C50.6839 29.4513 50.6827 29.4326 50.6825 29.4137H53.4621C53.9317 29.4137 54.3125 29.033 54.3125 28.5633V19.4923C54.3126 17.2528 52.6602 15.3921 50.5105 15.0648ZM39.799 5.82932H46.2054C47.237 5.82932 48.0763 6.66862 48.0763 7.70024V7.75689H39.799V5.82932ZM39.799 15.0137V9.45765H47.3556L48.7446 15.0137H39.799ZM15.364 33.1557C13.332 33.1557 11.6789 31.5026 11.6789 29.4706C11.6789 27.4385 13.332 25.7855 15.364 25.7855C17.3959 25.7855 19.0491 27.4385 19.0491 29.4706C19.0491 31.5026 17.3959 33.1557 15.364 33.1557ZM45.2983 33.1557C43.2664 33.1557 41.6132 31.5026 41.6132 29.4706C41.6132 27.4385 43.2664 25.7855 45.2983 25.7855C47.3303 25.7855 48.9834 27.4385 48.9834 29.4706C48.9834 31.5026 47.3303 33.1557 45.2983 33.1557ZM52.6118 22.2704H51.648C51.1165 22.2704 50.6842 21.8381 50.6842 21.3066V20.3428H52.6117L52.6118 22.2704Z" fill="#BA0203"/>
<path d="M15.364 27.7131C14.3948 27.7131 13.6064 28.5015 13.6064 29.4707C13.6064 30.4398 14.3948 31.2281 15.364 31.2281C16.3331 31.2281 17.1215 30.4398 17.1215 29.4707C17.1215 28.5015 16.3331 27.7131 15.364 27.7131Z" fill="#BA0203"/>
<path d="M45.2983 27.7131C44.3292 27.7131 43.5408 28.5015 43.5408 29.4707C43.5408 30.4398 44.3292 31.2281 45.2983 31.2281C46.2674 31.2281 47.0558 30.4398 47.0558 29.4707C47.0558 28.5015 46.2674 27.7131 45.2983 27.7131Z" fill="#BA0203"/>
<path d="M35.3201 24.0847H22.6208C22.1511 24.0847 21.7703 24.4654 21.7703 24.9352C21.7703 25.4049 22.151 25.7856 22.6208 25.7856H35.3201C35.7898 25.7856 36.1706 25.4049 36.1706 24.9352C36.1706 24.4654 35.7899 24.0847 35.3201 24.0847Z" fill="#BA0203"/>
<path d="M13.5498 20.4563H2.66459C2.19497 20.4563 1.81415 20.837 1.81415 21.3067C1.81415 21.7764 2.19487 22.1572 2.66459 22.1572H13.5498C14.0194 22.1572 14.4002 21.7764 14.4002 21.3067C14.4002 20.837 14.0194 20.4563 13.5498 20.4563Z" fill="#BA0203"/>
<path d="M29.5718 8.91282C29.2398 8.5808 28.7012 8.5808 28.3692 8.91292L20.8066 16.4754L16.8724 12.5413C16.5403 12.2091 16.0019 12.2091 15.6698 12.5413C15.3377 12.8734 15.3377 13.4117 15.6698 13.7439L20.2054 18.2794C20.3714 18.4455 20.589 18.5285 20.8066 18.5285C21.0242 18.5285 21.2419 18.4455 21.4079 18.2794L29.5717 10.1156C29.9039 9.78331 29.9039 9.24495 29.5718 8.91282Z" fill="#BA0203"/>
</g>
</svg>
