<svg width="47" height="48" viewBox="0 0 47 48" fill="none" xmlns="http://www.w3.org/2000/svg">
<mask id="mask0_1_642" style="mask-type:alpha" maskUnits="userSpaceOnUse" x="0" y="0" width="47" height="48">
<rect y="0.5" width="47" height="47" fill="#BA0203"/>
</mask>
<g mask="url(#mask0_1_642)">
<path d="M45.6795 27.598C46.107 27.598 46.4537 27.2513 46.4537 26.8238V20.6299C46.4537 20.2024 46.107 19.8557 45.6795 19.8557H41.3957C40.925 17.6353 40.0492 15.5207 38.8121 13.6178L41.8377 10.5851C42.1395 10.2829 42.1395 9.79335 41.8377 9.49111L37.4634 5.11672C37.1611 4.81497 36.6716 4.81497 36.3694 5.11672L33.3359 8.14163C31.433 6.90451 29.3184 6.02867 27.098 5.55803V1.27423C27.098 0.846661 26.7513 0.5 26.3238 0.5H20.1299C19.7024 0.5 19.3557 0.846661 19.3557 1.27423V5.55803C17.1353 6.02867 15.0207 6.90451 13.1178 8.14163L10.0851 5.11595C9.78286 4.81419 9.29335 4.81419 8.99111 5.11595L4.61672 9.49034C4.31497 9.79258 4.31497 10.2821 4.61672 10.5843L7.64241 13.617C6.4049 15.52 5.52876 17.635 5.05803 19.8557H0.774228C0.346661 19.8557 0 20.2024 0 20.6299V26.8238C0 27.2513 0.346661 27.598 0.774228 27.598H5.05803C5.52867 29.8184 6.40451 31.933 7.64163 33.8359L4.61595 36.8686C4.31419 37.1708 4.31419 37.6603 4.61595 37.9626L8.99034 42.337C9.29258 42.6387 9.78208 42.6387 10.0843 42.337L13.117 39.3113C15.02 40.5488 17.135 41.4249 19.3557 41.8957V46.1795C19.3557 46.607 19.7024 46.9537 20.1299 46.9537H26.3238C26.7513 46.9537 27.098 46.607 27.098 46.1795V41.8957C29.3177 41.4232 31.4315 40.5461 33.3336 39.3082L39.6506 45.6251C41.169 47.1302 43.62 47.1194 45.1251 45.601C46.6208 44.092 46.6208 41.6595 45.1251 40.1506L38.8082 33.8336C40.0461 31.9315 40.9232 29.8177 41.3957 27.598H45.6795ZM44.0304 44.5304C43.1234 45.4375 41.6527 45.4377 40.7456 44.5307L25.9204 29.7062C25.1931 28.9799 24.2059 28.5741 23.1781 28.5789C23.0166 28.5788 22.8553 28.5884 22.695 28.6076C19.3016 29.0151 16.2203 26.5947 15.8127 23.2013C15.7187 22.4181 15.7752 21.6241 15.9793 20.8622L19.3944 24.2781C19.5396 24.4233 19.7364 24.5049 19.9418 24.5049H23.2268C23.6544 24.5049 24.0011 24.1583 24.0011 23.7307V20.4418C24.0011 20.2364 23.9194 20.0396 23.7742 19.8944L20.3622 16.4793C23.6641 15.5968 27.0562 17.5581 27.9387 20.8599C28.142 21.6207 28.1983 22.4132 28.1045 23.195C27.9531 24.382 28.3586 25.5725 29.2031 26.4204L44.0304 41.2453C44.9375 42.1523 44.9374 43.6233 44.0304 44.5304ZM30.301 25.3295C29.7934 24.8166 29.5516 24.0977 29.646 23.3823C30.1574 19.1401 27.133 15.2865 22.8907 14.775C21.4309 14.5991 19.9512 14.8427 18.6248 15.4774C18.2394 15.6625 18.0769 16.125 18.2619 16.5105C18.2998 16.5894 18.3508 16.6613 18.4127 16.7232L22.4526 20.7623V22.9526H20.2623L16.2232 18.9127C15.9209 18.6102 15.4308 18.61 15.1282 18.9121C15.0663 18.974 15.0153 19.046 14.9774 19.1248C13.133 22.9787 14.7621 27.5982 18.6161 29.4425C19.9413 30.0767 21.4198 30.3205 22.8784 30.1452C23.5939 30.0511 24.3128 30.2933 24.8256 30.801L28.8083 34.7828C22.698 37.8697 15.2421 35.4186 12.1553 29.3083C9.06854 23.198 11.5195 15.7421 17.6299 12.6553C23.7403 9.56854 31.196 12.0195 34.2828 18.1299C36.0583 21.6445 36.0583 25.7936 34.2828 29.3083L30.301 25.3295ZM39.9928 26.6968C39.6194 28.8337 38.8376 30.8786 37.6902 32.7195L35.4264 30.4557C39.1494 23.709 36.6984 15.2218 29.9518 11.4987C23.2052 7.77562 14.7179 10.2267 10.9948 16.9733C7.27174 23.7199 9.72285 32.2072 16.4694 35.9302C20.6653 38.2457 25.7559 38.2457 29.9518 35.9302L32.2156 38.1941C30.3747 39.3415 28.3298 40.1233 26.1929 40.4966C25.8228 40.5601 25.5517 40.8799 25.5495 41.2554V45.4052H20.9042V41.2554C20.904 40.8784 20.6323 40.5564 20.2608 40.4928C17.8185 40.0652 15.5003 39.1046 13.4716 37.6792C13.1638 37.4629 12.7451 37.4992 12.479 37.7652L9.54314 40.6956L6.26196 37.4144L9.19241 34.4786C9.45836 34.2125 9.49465 33.7938 9.27835 33.486C7.85242 31.4561 6.89179 29.1366 6.46481 26.6929C6.40084 26.3199 6.07672 26.0479 5.69832 26.0495H1.54846V21.4042H5.69832C6.07527 21.404 6.39725 21.1323 6.46093 20.7608C6.8885 18.3185 7.84913 16.0003 9.27448 13.9716C9.49078 13.6638 9.45449 13.2451 9.18854 12.979L6.25809 10.0431L9.53927 6.76196L12.4751 9.69241C12.7412 9.95836 13.1599 9.99465 13.4677 9.77835C15.4976 8.35242 17.8171 7.39179 20.2608 6.96481C20.6338 6.90084 20.9058 6.57672 20.9042 6.19832V2.04846H25.5495V6.19832C25.5497 6.57527 25.8214 6.89725 26.1929 6.96093C28.6366 7.38792 30.9561 8.34855 32.986 9.77448C33.2938 9.99078 33.7125 9.95449 33.9786 9.68854L36.9144 6.75809L40.1956 10.0393L37.2652 12.9751C36.9992 13.2412 36.9629 13.6599 37.1792 13.9677C38.6052 15.9976 39.5658 18.3171 39.9928 20.7608C40.0564 21.1323 40.3784 21.404 40.7554 21.4042H44.9052V26.0495H40.7554C40.3784 26.0497 40.0564 26.3214 39.9928 26.6929V26.6968Z" fill="#BA0203"/>
<path d="M28.154 27.5594C27.857 27.2518 27.3669 27.2433 27.0593 27.5404C26.7517 27.8375 26.7432 28.3276 27.0403 28.6351C27.0466 28.6417 27.0529 28.6479 27.0593 28.6541L27.6067 29.2015C27.9142 29.4986 28.4043 29.4901 28.7014 29.1826C28.9913 28.8825 28.9913 28.4068 28.7014 28.1067L28.154 27.5594Z" fill="#BA0203"/>
<path d="M39.1032 40.698C39.4108 40.9952 39.9009 40.9866 40.198 40.6791C40.4878 40.379 40.4878 39.9032 40.198 39.6033L30.8917 30.2962C30.5892 29.9937 30.0987 29.9937 29.7962 30.2962C29.4936 30.5988 29.4936 31.0893 29.7962 31.3918L39.1032 40.698Z" fill="#BA0203"/>
<path d="M41.8408 43.4357C42.1484 43.7328 42.6385 43.7243 42.9356 43.4167C43.2255 43.1168 43.2255 42.641 42.9356 42.341L42.3882 41.7928C42.0857 41.4903 41.5952 41.4903 41.2927 41.7928C40.9902 42.0953 40.9902 42.5858 41.2927 42.8883L41.8408 43.4357Z" fill="#BA0203"/>
</g>
</svg>
