<svg width="18" height="13" viewBox="0 0 18 13" fill="none" xmlns="http://www.w3.org/2000/svg">
<mask id="mask0_1_845" style="mask-type:alpha" maskUnits="userSpaceOnUse" x="0" y="0" width="18" height="13">
<rect x="0.772705" y="0.125" width="16.9193" height="12.8149" fill="white"/>
</mask>
<g mask="url(#mask0_1_845)">
<path d="M11.8365 5.77589L8.09866 3.73071C7.88373 3.61314 7.62971 3.61747 7.41905 3.74232C7.20827 3.86726 7.08252 4.08799 7.08252 4.33299V8.38831C7.08252 8.63209 7.20746 8.85243 7.41684 8.97756C7.52618 9.04284 7.6474 9.07562 7.76886 9.07562C7.88014 9.07562 7.99165 9.04813 8.09427 8.99288L11.8323 6.98296C12.0542 6.86353 12.1927 6.63288 12.1937 6.38075C12.1946 6.12867 12.0578 5.89697 11.8365 5.77589ZM8.07401 7.87812V4.84728L10.8676 6.37585L8.07401 7.87812Z" fill="white"/>
<path d="M17.5674 3.14954L17.5667 3.1418C17.5523 3.00562 17.4097 1.79428 16.8209 1.17819C16.1402 0.453503 15.3685 0.365471 14.9974 0.323272C14.9667 0.319769 14.9386 0.316564 14.9134 0.313193L14.8838 0.310087C12.6471 0.147438 9.26908 0.125264 9.23527 0.125132L9.2323 0.125L9.22932 0.125132C9.19552 0.125264 5.81753 0.147438 3.56064 0.310087L3.53083 0.313193C3.50681 0.316431 3.48034 0.319405 3.45155 0.322743C3.08472 0.365074 2.32131 0.453239 1.63872 1.20413C1.07785 1.81365 0.915725 2.99902 0.89907 3.13225L0.897154 3.14954C0.892098 3.20621 0.772705 4.55525 0.772705 5.90958V7.17564C0.772705 8.52997 0.892098 9.87904 0.897154 9.93582L0.898046 9.94434C0.912354 10.0783 1.05488 11.2674 1.64104 11.8838C2.28102 12.5842 3.09027 12.6769 3.52554 12.7267C3.59434 12.7346 3.65359 12.7413 3.69397 12.7484L3.7331 12.7539C5.02458 12.8767 9.07378 12.9373 9.24545 12.9397L9.25064 12.9399L9.25579 12.9397C9.2896 12.9396 12.6675 12.9174 14.9042 12.7547L14.9338 12.7516C14.9621 12.7479 14.9938 12.7445 15.0286 12.7409C15.3934 12.7022 16.1527 12.6218 16.8259 11.8811C17.3868 11.2714 17.549 10.0861 17.5655 9.953L17.5674 9.93568C17.5725 9.87891 17.692 8.52997 17.692 7.17564V5.90958C17.6919 4.55525 17.5725 3.20634 17.5674 3.14954ZM16.7004 7.17564C16.7004 8.42918 16.5909 9.72013 16.5806 9.83863C16.5385 10.1651 16.3675 10.915 16.0942 11.2121C15.6729 11.6756 15.2401 11.7215 14.9241 11.755C14.8859 11.759 14.8505 11.7629 14.8185 11.7669C12.6551 11.9233 9.40463 11.9473 9.2549 11.9482C9.08693 11.9458 5.09698 11.8847 3.84489 11.7684C3.78072 11.758 3.71142 11.75 3.63836 11.7417C3.26776 11.6992 2.76045 11.6412 2.37038 11.2121L2.36119 11.2023C2.0927 10.9225 1.92658 10.2212 1.88438 9.8425C1.87648 9.75291 1.7642 8.44673 1.7642 7.17564V5.90958C1.7642 4.65749 1.87341 3.36793 1.88399 3.24699C1.93418 2.86247 2.10846 2.15791 2.37038 1.87316C2.80459 1.39556 3.26247 1.34262 3.5653 1.30766C3.59421 1.30429 3.62118 1.30118 3.64609 1.29798C5.84103 1.14075 9.11482 1.11738 9.2323 1.11649C9.34978 1.11725 12.6224 1.14075 14.7979 1.29798C14.8246 1.30131 14.8537 1.30468 14.8851 1.30829C15.1966 1.34381 15.6673 1.39751 16.0994 1.85832L16.1034 1.86259C16.3719 2.14232 16.538 2.85586 16.5802 3.24223C16.5877 3.32676 16.7004 4.63581 16.7004 5.90958V7.17564Z" fill="white"/>
</g>
</svg>
